<svg version="1.2" xmlns="http://www.w3.org/2000/svg" viewBox="0 0 461 346" width="461" height="346">
	<title>fasterrcnn_recall-svg</title>
	<defs>
		<clipPath clipPathUnits="userSpaceOnUse" id="cp1">
			<path d="m57.6 41.47h357.12v266.11h-357.12z"/>
		</clipPath>
	</defs>
	<style>
		tspan { white-space:pre } 
		.s0 { fill: #ffffff } 
		.s1 { fill: #000000;stroke: #000000;stroke-width: .8 } 
		.s2 { fill: #000000 } 
		.t3 { font-size: 10px;fill: #000000;font-weight: 400;font-family: "DejaVuSans", "DejaVu Sans" } 
		.s4 { fill: none;stroke: #1f77b4;stroke-linecap: square;stroke-width: 1.5 } 
		.s5 { fill: none;stroke: #000000;stroke-linecap: square;stroke-width: .8 } 
	</style>
	<g id="figure_1">
		<g id="patch_1">
			<path id="Layer" class="s0" d="m0 345.6h460.8v-345.6h-460.8z"/>
		</g>
		<g id="axes_1">
			<g id="patch_2">
				<path id="Layer" class="s0" d="m58.6 310.6h357.1v-266.1h-357.1z"/>
			</g>
			<g id="matplotlib.axis_1">
				<g id="xtick_1">
					<g id="line2d_1">
						<g id="Layer">
							<path id="m4fb26c90cb" class="s1" d="m73.6 307.6v3.5"/>
						</g>
					</g>
					<g id="text_1">
						<g id="Layer">
							<path id="DejaVuSans-30" fill-rule="evenodd" class="s2" d="m73.6 314.8q1.3 0 1.9 0.9 0.6 1 0.6 2.8 0 1.9-0.6 2.9-0.6 0.9-1.9 0.9-1.2 0-1.8-0.9-0.7-1-0.7-2.9 0-1.8 0.7-2.8 0.6-0.9 1.8-0.9zm0 0.7q-0.7 0-1.1 0.8-0.4 0.7-0.4 2.2 0 1.5 0.4 2.3 0.4 0.7 1.1 0.7 0.8 0 1.2-0.7 0.4-0.8 0.4-2.3 0-1.5-0.4-2.2-0.4-0.8-1.2-0.8z"/>
						</g>
					</g>
				</g>
				<g id="xtick_2">
					<g id="line2d_2">
						<g id="Layer">
							<path id="m4fb26c90cb" class="s1" d="m114.2 307.6v3.5"/>
						</g>
					</g>
				</g>
				<g id="xtick_3">
					<g id="line2d_3">
						<g id="Layer">
							<path id="m4fb26c90cb" class="s1" d="m154.8 307.6v3.5"/>
						</g>
					</g>
				</g>
				<g id="xtick_4">
					<g id="line2d_4">
						<g id="Layer">
							<path id="m4fb26c90cb" class="s1" d="m195.5 307.6v3.5"/>
						</g>
					</g>
				</g>
				<g id="xtick_5">
					<g id="line2d_5">
						<g id="Layer">
							<path id="m4fb26c90cb" class="s1" d="m236.1 307.6v3.5"/>
						</g>
					</g>
				</g>
				<g id="xtick_6">
					<g id="line2d_6">
						<g id="Layer">
							<path id="m4fb26c90cb" class="s1" d="m276.7 307.6v3.5"/>
						</g>
					</g>
				</g>
				<g id="xtick_7">
					<g id="line2d_7">
						<g id="Layer">
							<path id="m4fb26c90cb" class="s1" d="m317.3 307.6v3.5"/>
						</g>
					</g>
				</g>
				<g id="xtick_8">
					<g id="line2d_8">
						<g id="Layer">
							<path id="m4fb26c90cb" class="s1" d="m357.9 307.6v3.5"/>
						</g>
					</g>
				</g>
				<g id="xtick_9">
					<g id="line2d_9">
						<g id="Layer">
							<path id="m4fb26c90cb" class="s1" d="m398.5 307.6v3.5"/>
						</g>
					</g>
					<text id="200000" style="transform: matrix(1,0,0,1,382,321.73)" >
						<tspan x="0" y="0" class="t3">2</tspan><tspan  y="0" class="t3">0</tspan><tspan  y="0" class="t3">0</tspan><tspan  y="0" class="t3">0</tspan><tspan  y="0" class="t3">0</tspan><tspan  y="0" class="t3">0</tspan><tspan  y="0" class="t3">
</tspan>
					</text>
					<text id="175000" style="transform: matrix(1,0,0,1,339,321.73)" >
						<tspan x="0" y="0" class="t3">1</tspan><tspan  y="0" class="t3">7</tspan><tspan  y="0" class="t3">5</tspan><tspan  y="0" class="t3">0</tspan><tspan  y="0" class="t3">0</tspan><tspan  y="0" class="t3">0</tspan><tspan  y="0" class="t3">
</tspan>
					</text>
					<text id="150000" style="transform: matrix(1,0,0,1,297,321.562)" >
						<tspan x="0" y="0" class="t3">1</tspan><tspan  y="0" class="t3">5</tspan><tspan  y="0" class="t3">0</tspan><tspan  y="0" class="t3">0</tspan><tspan  y="0" class="t3">0</tspan><tspan  y="0" class="t3">0
</tspan>
					</text>
					<text id="125000" style="transform: matrix(1,0,0,1,255,321.562)" >
						<tspan x="0" y="0" class="t3">1</tspan><tspan  y="0" class="t3">2</tspan><tspan  y="0" class="t3">5</tspan><tspan  y="0" class="t3">0</tspan><tspan  y="0" class="t3">0</tspan><tspan  y="0" class="t3">0
</tspan>
					</text>
					<text id="100000" style="transform: matrix(1,0,0,1,213,321.562)" >
						<tspan x="0" y="0" class="t3">1</tspan><tspan  y="0" class="t3">0</tspan><tspan  y="0" class="t3">0</tspan><tspan  y="0" class="t3">0</tspan><tspan  y="0" class="t3">0</tspan><tspan  y="0" class="t3">0
</tspan>
					</text>
					<text id="75000" style="transform: matrix(1,0,0,1,177,321.562)" >
						<tspan x="0" y="0" class="t3">7</tspan><tspan  y="0" class="t3">5</tspan><tspan  y="0" class="t3">0</tspan><tspan  y="0" class="t3">0</tspan><tspan  y="0" class="t3">0
</tspan>
					</text>
					<text id="50000" style="transform: matrix(1,0,0,1,138,321.562)" >
						<tspan x="0" y="0" class="t3">5</tspan><tspan  y="0" class="t3">0</tspan><tspan  y="0" class="t3">0</tspan><tspan  y="0" class="t3">0</tspan><tspan  y="0" class="t3">0
</tspan>
					</text>
					<text id="25000" style="transform: matrix(1,0,0,1,97,321.562)" >
						<tspan x="0" y="0" class="t3">2</tspan><tspan  y="0" class="t3">5</tspan><tspan  y="0" class="t3">0</tspan><tspan  y="0" class="t3">0</tspan><tspan  y="0" class="t3">0
</tspan>
					</text>
				</g>
				<g id="text_10">
					<g id="Layer">
						<path id="DejaVuSans-49" class="s2" d="m213.3 328.6h1v7.3h-1z"/>
						<path id="DejaVuSans-74" class="s2" d="m217.1 328.8v1.6h1.9v0.7h-1.9v3q0 0.6 0.2 0.8 0.2 0.2 0.8 0.2h0.9v0.8h-0.9q-1.1 0-1.5-0.4-0.4-0.4-0.4-1.4v-3h-0.6v-0.7h0.6v-1.6z"/>
						<path id="DejaVuSans-65" fill-rule="evenodd" class="s2" d="m224.8 332.9v0.4h-4.1q0.1 1 0.6 1.5 0.5 0.4 1.4 0.4 0.5 0 1-0.1 0.4-0.1 0.9-0.4v0.9q-0.5 0.2-1 0.3-0.5 0.1-1 0.1-1.3 0-2.1-0.8-0.7-0.7-0.7-2 0-1.4 0.7-2.2 0.7-0.7 1.9-0.7 1.2 0 1.8 0.7 0.6 0.7 0.6 1.9zm-0.9-0.3q0-0.7-0.4-1.1-0.4-0.5-1-0.5-0.8 0-1.2 0.4-0.5 0.5-0.6 1.2z"/>
						<path id="DejaVuSans-72" class="s2" d="m229.5 331.2q-0.2-0.1-0.3-0.1-0.2 0-0.4 0-0.8 0-1.2 0.5-0.4 0.5-0.4 1.4v2.9h-0.9v-5.5h0.9v0.8q0.3-0.5 0.7-0.7 0.5-0.2 1.1-0.2 0.1 0 0.2 0 0.1 0 0.3 0z"/>
						<path id="DejaVuSans-61" fill-rule="evenodd" class="s2" d="m234.7 332.7v3.2h-0.9v-0.9q-0.3 0.5-0.8 0.8-0.4 0.2-1.1 0.2-0.8 0-1.3-0.5-0.5-0.4-0.5-1.2 0-1 0.6-1.4 0.6-0.5 1.8-0.5h1.3v-0.1q0-0.6-0.4-0.9-0.4-0.4-1.2-0.4-0.4 0-0.9 0.1-0.4 0.1-0.8 0.4v-0.9q0.5-0.2 0.9-0.2 0.5-0.1 0.9-0.1 1.2 0 1.8 0.6 0.6 0.6 0.6 1.8zm-1.8 0.4q-1.1 0-1.5 0.3-0.4 0.2-0.4 0.8 0 0.5 0.3 0.8 0.3 0.2 0.9 0.2 0.7 0 1.2-0.5 0.4-0.5 0.4-1.4v-0.2z"/>
						<path id="DejaVuSans-74" class="s2" d="m237.4 328.8v1.6h1.9v0.7h-1.9v3q0 0.6 0.2 0.8 0.2 0.2 0.8 0.2h0.9v0.8h-0.9q-1.1 0-1.5-0.4-0.4-0.4-0.4-1.4v-3h-0.6v-0.7h0.6v-1.6z"/>
						<path id="DejaVuSans-69" class="s2" d="m240.5 330.4h0.9v5.5h-0.9zm0-2.2h0.9v1.2h-0.9z"/>
						<path id="DejaVuSans-6f" fill-rule="evenodd" class="s2" d="m245.4 330.3q1.1 0 1.8 0.7 0.7 0.8 0.7 2.1 0 1.4-0.7 2.1-0.7 0.8-1.8 0.8-1.2 0-1.9-0.8-0.6-0.7-0.6-2.1 0-1.3 0.6-2.1 0.7-0.7 1.9-0.7zm0 0.7q-0.8 0-1.2 0.6-0.4 0.5-0.4 1.5 0 1 0.4 1.6 0.4 0.5 1.2 0.5 0.7 0 1.1-0.5 0.4-0.6 0.4-1.6 0-0.9-0.4-1.5-0.4-0.6-1.1-0.6z"/>
						<path id="DejaVuSans-6e" class="s2" d="m253.9 332.6v3.3h-0.9v-3.3q0-0.8-0.3-1.2-0.3-0.4-0.9-0.4-0.7 0-1.1 0.5-0.5 0.5-0.5 1.3v3.1h-0.9v-5.5h0.9v0.8q0.4-0.5 0.8-0.7 0.4-0.2 1-0.2 0.9 0 1.4 0.5 0.5 0.6 0.5 1.8z"/>
						<path id="DejaVuSans-73" class="s2" d="m259.2 330.6v0.8q-0.4-0.2-0.8-0.3-0.4-0.1-0.8-0.1-0.7 0-1.1 0.2-0.3 0.2-0.3 0.6 0 0.3 0.3 0.5 0.2 0.2 0.9 0.4h0.3q1 0.2 1.4 0.6 0.4 0.4 0.4 1.1 0 0.7-0.6 1.2-0.6 0.4-1.7 0.4-0.4 0-0.9-0.1-0.5-0.1-1-0.2v-1q0.5 0.3 1 0.4 0.5 0.1 0.9 0.1 0.7 0 1-0.2 0.4-0.2 0.4-0.6 0-0.3-0.3-0.5-0.2-0.2-1.1-0.4l-0.3-0.1q-0.8-0.2-1.2-0.5-0.4-0.4-0.4-1 0-0.8 0.6-1.2 0.5-0.4 1.5-0.4 0.5 0 1 0 0.4 0.1 0.8 0.3z"/>
					</g>
				</g>
			</g>
			<g id="matplotlib.axis_2">
				<g id="ytick_1">
					<g id="line2d_10">
						<g id="Layer">
							<path id="m8a66735d86" class="s1" d="m57.6 284.2h-3.5"/>
						</g>
					</g>
					<g id="text_11">
						<g id="Layer">
							<path id="DejaVuSans-30" fill-rule="evenodd" class="s2" d="m37.9 280.6q1.2 0 1.8 0.9 0.7 1 0.7 2.8 0 1.9-0.7 2.9-0.6 0.9-1.8 0.9-1.3 0-1.9-0.9-0.6-1-0.6-2.9 0-1.8 0.6-2.8 0.6-0.9 1.9-0.9zm0 0.7q-0.8 0-1.2 0.8-0.4 0.7-0.4 2.2 0 1.5 0.4 2.3 0.4 0.7 1.2 0.7 0.7 0 1.1-0.7 0.4-0.8 0.4-2.3 0-1.5-0.4-2.2-0.4-0.8-1.1-0.8z"/>
							<path id="DejaVuSans-2e" class="s2" d="m42.1 286.7h1.1v1.3h-1.1z"/>
							<path id="DejaVuSans-33" class="s2" d="m48.3 284.1q0.7 0.1 1.1 0.6 0.4 0.5 0.4 1.2 0 1-0.7 1.6-0.8 0.6-2.2 0.6-0.4 0-0.9-0.1-0.5-0.1-1-0.2v-1q0.4 0.2 0.9 0.4 0.5 0.1 1 0.1 0.9 0 1.4-0.4 0.5-0.3 0.5-1 0-0.7-0.4-1-0.5-0.4-1.3-0.4h-0.8v-0.8h0.8q0.8 0 1.2-0.3 0.3-0.3 0.3-0.8 0-0.6-0.4-0.9-0.3-0.3-1.1-0.3-0.4 0-0.9 0.1-0.4 0.1-1 0.3v-0.9q0.6-0.2 1.1-0.3 0.5 0 0.9 0 1.1 0 1.8 0.5 0.6 0.5 0.6 1.3 0 0.7-0.3 1.1-0.4 0.4-1 0.6z"/>
						</g>
					</g>
				</g>
				<g id="ytick_2">
					<g id="line2d_11">
						<g id="Layer">
							<path id="m8a66735d86" class="s1" d="m57.6 246.4h-3.5"/>
						</g>
					</g>
					<g id="text_12">
						<g id="Layer">
							<path id="DejaVuSans-30" fill-rule="evenodd" class="s2" d="m37.9 242.8q1.2 0 1.8 1 0.7 0.9 0.7 2.8 0 1.8-0.7 2.8-0.6 1-1.8 1-1.3 0-1.9-1-0.6-1-0.6-2.8 0-1.9 0.6-2.8 0.6-1 1.9-1zm0 0.8q-0.8 0-1.2 0.7-0.4 0.8-0.4 2.3 0 1.5 0.4 2.2 0.4 0.8 1.2 0.8 0.7 0 1.1-0.8 0.4-0.7 0.4-2.2 0-1.5-0.4-2.3-0.4-0.7-1.1-0.7z"/>
							<path id="DejaVuSans-2e" class="s2" d="m42.1 249h1.1v1.2h-1.1z"/>
							<path id="DejaVuSans-34" fill-rule="evenodd" class="s2" d="m47.8 242.9h1.2v4.8h1v0.8h-1v1.7h-1v-1.7h-3.3v-1zm0.3 0.9l-2.5 3.9h2.5z"/>
						</g>
					</g>
				</g>
				<g id="ytick_3">
					<g id="line2d_12">
						<g id="Layer">
							<path id="m8a66735d86" class="s1" d="m57.6 208.6h-3.5"/>
						</g>
					</g>
					<g id="text_13">
						<g id="Layer">
							<path id="DejaVuSans-30" fill-rule="evenodd" class="s2" d="m37.9 205q1.2 0 1.8 1 0.7 1 0.7 2.8 0 1.8-0.7 2.8-0.6 1-1.8 1-1.3 0-1.9-1-0.6-1-0.6-2.8 0-1.8 0.6-2.8 0.6-1 1.9-1zm0 0.8q-0.8 0-1.2 0.8-0.4 0.7-0.4 2.2 0 1.5 0.4 2.3 0.4 0.7 1.2 0.7 0.7 0 1.1-0.7 0.4-0.8 0.4-2.3 0-1.5-0.4-2.2-0.4-0.8-1.1-0.8z"/>
							<path id="DejaVuSans-2e" class="s2" d="m42.1 211.2h1.1v1.2h-1.1z"/>
							<path id="DejaVuSans-35" class="s2" d="m45.3 205.2h3.9v0.8h-3v1.8q0.2-0.1 0.4-0.1 0.3-0.1 0.5-0.1 1.2 0 1.9 0.7 0.7 0.7 0.7 1.8 0 1.2-0.7 1.8-0.7 0.7-2.1 0.7-0.4 0-0.9-0.1-0.5-0.1-1-0.2v-1q0.4 0.2 0.9 0.3 0.5 0.2 1 0.2 0.9 0 1.3-0.5 0.5-0.4 0.5-1.2 0-0.8-0.5-1.2-0.4-0.4-1.3-0.4-0.4 0-0.8 0-0.4 0.1-0.8 0.3z"/>
						</g>
					</g>
				</g>
				<g id="ytick_4">
					<g id="line2d_13">
						<g id="Layer">
							<path id="m8a66735d86" class="s1" d="m57.6 170.9h-3.5"/>
						</g>
					</g>
					<g id="text_14">
						<g id="Layer">
							<path id="DejaVuSans-30" fill-rule="evenodd" class="s2" d="m37.9 167.3q1.2 0 1.8 0.9 0.7 1 0.7 2.8 0 1.9-0.7 2.8-0.6 1-1.8 1-1.3 0-1.9-1-0.6-0.9-0.6-2.8 0-1.8 0.6-2.8 0.6-0.9 1.9-0.9zm0 0.7q-0.8 0-1.2 0.8-0.4 0.7-0.4 2.2 0 1.5 0.4 2.3 0.4 0.7 1.2 0.7 0.7 0 1.1-0.7 0.4-0.8 0.4-2.3 0-1.5-0.4-2.2-0.4-0.8-1.1-0.8z"/>
							<path id="DejaVuSans-2e" class="s2" d="m42.1 173.4h1.1v1.3h-1.1z"/>
							<path id="DejaVuSans-36" fill-rule="evenodd" class="s2" d="m49.5 167.5v0.9q-0.4-0.1-0.8-0.2-0.3-0.1-0.7-0.1-1 0-1.5 0.6-0.5 0.7-0.6 2 0.3-0.4 0.7-0.6 0.5-0.2 1-0.2 1.1 0 1.7 0.6 0.7 0.7 0.7 1.8 0 1.2-0.7 1.8-0.7 0.7-1.8 0.7-1.2 0-1.9-1-0.7-0.9-0.7-2.8 0-1.7 0.9-2.7 0.8-1 2.2-1 0.3 0 0.7 0 0.4 0.1 0.8 0.2zm-2 3.1q-0.6 0-1 0.5-0.4 0.4-0.4 1.2 0 0.8 0.4 1.3 0.4 0.4 1 0.4 0.7 0 1.1-0.4 0.4-0.5 0.4-1.3 0-0.8-0.4-1.2-0.4-0.5-1.1-0.5z"/>
						</g>
					</g>
				</g>
				<g id="ytick_5">
					<g id="line2d_14">
						<g id="Layer">
							<path id="m8a66735d86" class="s1" d="m57.6 133.1h-3.5"/>
						</g>
					</g>
					<g id="text_15">
						<g id="Layer">
							<path id="DejaVuSans-30" fill-rule="evenodd" class="s2" d="m37.9 129.5q1.2 0 1.8 1 0.7 0.9 0.7 2.8 0 1.8-0.7 2.8-0.6 0.9-1.8 0.9-1.3 0-1.9-0.9-0.6-1-0.6-2.8 0-1.9 0.6-2.8 0.6-1 1.9-1zm0 0.8q-0.8 0-1.2 0.7-0.4 0.8-0.4 2.3 0 1.5 0.4 2.2 0.4 0.8 1.2 0.8 0.7 0 1.1-0.8 0.4-0.7 0.4-2.2 0-1.5-0.4-2.3-0.4-0.7-1.1-0.7z"/>
							<path id="DejaVuSans-2e" class="s2" d="m42.1 135.7h1.1v1.2h-1.1z"/>
							<path id="DejaVuSans-37" class="s2" d="m45.1 129.6h4.6v0.4l-2.6 6.9h-1l2.5-6.5h-3.5z"/>
						</g>
					</g>
				</g>
				<g id="ytick_6">
					<g id="line2d_15">
						<g id="Layer">
							<path id="m8a66735d86" class="s1" d="m57.6 95.3h-3.5"/>
						</g>
					</g>
					<g id="text_16">
						<g id="Layer">
							<path id="DejaVuSans-30" fill-rule="evenodd" class="s2" d="m37.9 91.7q1.2 0 1.8 1 0.7 1 0.7 2.8 0 1.8-0.7 2.8-0.6 1-1.8 1-1.3 0-1.9-1-0.6-1-0.6-2.8 0-1.8 0.6-2.8 0.6-1 1.9-1zm0 0.8q-0.8 0-1.2 0.7-0.4 0.8-0.4 2.3 0 1.5 0.4 2.2 0.4 0.8 1.2 0.8 0.7 0 1.1-0.8 0.4-0.7 0.4-2.2 0-1.5-0.4-2.3-0.4-0.7-1.1-0.7z"/>
							<path id="DejaVuSans-2e" class="s2" d="m42.1 97.9h1.1v1.2h-1.1z"/>
							<path id="DejaVuSans-38" fill-rule="evenodd" class="s2" d="m46.4 95.3q-0.6-0.2-1-0.6-0.3-0.5-0.3-1.1 0-0.9 0.6-1.4 0.6-0.5 1.7-0.5 1.1 0 1.7 0.5 0.6 0.5 0.6 1.4 0 0.6-0.3 1.1-0.4 0.4-1 0.6 0.7 0.1 1.1 0.6 0.4 0.5 0.4 1.2 0 1-0.6 1.6-0.7 0.6-1.9 0.6-1.2 0-1.8-0.6-0.7-0.6-0.7-1.6 0-0.7 0.4-1.2 0.4-0.5 1.1-0.6zm1 0.4q-0.7 0-1.1 0.3-0.4 0.4-0.4 1.1 0 0.6 0.4 1 0.4 0.4 1.1 0.4 0.7 0 1.1-0.4 0.4-0.4 0.4-1 0-0.7-0.4-1.1-0.4-0.3-1.1-0.3zm-1.3-2q0 0.6 0.3 0.9 0.4 0.3 1 0.3 0.7 0 1-0.3 0.4-0.3 0.4-0.9 0-0.6-0.4-0.9-0.3-0.3-1-0.3-0.6 0-1 0.3-0.3 0.3-0.3 0.9z"/>
						</g>
					</g>
				</g>
				<g id="ytick_7">
					<g id="line2d_16">
						<g id="Layer">
							<path id="m8a66735d86" class="s1" d="m57.6 57.6h-3.5"/>
						</g>
					</g>
					<g id="text_17">
						<g id="Layer">
							<path id="DejaVuSans-30" fill-rule="evenodd" class="s2" d="m37.9 53.9q1.2 0 1.8 1 0.7 1 0.7 2.8 0 1.9-0.7 2.8-0.6 1-1.8 1-1.3 0-1.9-1-0.6-0.9-0.6-2.8 0-1.8 0.6-2.8 0.6-1 1.9-1zm0 0.8q-0.8 0-1.2 0.8-0.4 0.7-0.4 2.2 0 1.5 0.4 2.3 0.4 0.7 1.2 0.7 0.7 0 1.1-0.7 0.4-0.8 0.4-2.3 0-1.5-0.4-2.2-0.4-0.8-1.1-0.8z"/>
							<path id="DejaVuSans-2e" class="s2" d="m42.1 60.1h1.1v1.3h-1.1z"/>
							<path id="DejaVuSans-39" fill-rule="evenodd" class="s2" d="m45.3 61.2v-0.9q0.4 0.2 0.8 0.3 0.4 0.1 0.7 0.1 1 0 1.5-0.7 0.5-0.6 0.6-2-0.3 0.4-0.7 0.7-0.4 0.2-1 0.2-1.1 0-1.7-0.7-0.6-0.6-0.6-1.8 0-1.1 0.6-1.8 0.7-0.7 1.8-0.7 1.3 0 1.9 1 0.7 1 0.7 2.8 0 1.7-0.8 2.8-0.8 1-2.2 1-0.4 0-0.8-0.1-0.4 0-0.8-0.2zm2-3.1q0.7 0 1.1-0.4 0.3-0.5 0.3-1.3 0-0.8-0.3-1.2-0.4-0.5-1.1-0.5-0.7 0-1.1 0.5-0.3 0.4-0.3 1.2 0 0.8 0.3 1.3 0.4 0.4 1.1 0.4z"/>
						</g>
					</g>
				</g>
				<g id="text_18">
					<g id="Layer">
						<path id="DejaVuSans-52" fill-rule="evenodd" class="s2" d="m25.2 185q0.1-0.3 0.5-0.6 0.3-0.3 0.9-0.6l2-1v1l-1.9 1q-0.7 0.3-0.9 0.7-0.3 0.3-0.3 0.9v1.1h3.1v1h-7.3v-2.3q0-1.2 0.5-1.8 0.6-0.6 1.6-0.6 0.7 0 1.2 0.3 0.4 0.3 0.6 0.9zm-3.1 2.5h2.6v-1.3q0-0.7-0.3-1-0.3-0.4-1-0.4-0.6 0-0.9 0.4-0.4 0.3-0.4 1z"/>
						<path id="DejaVuSans-65" fill-rule="evenodd" class="s2" d="m25.7 177.3h0.4v4.2q0.9-0.1 1.4-0.6 0.5-0.5 0.5-1.4 0-0.5-0.1-1-0.2-0.5-0.4-1h0.8q0.2 0.5 0.4 1 0.1 0.5 0.1 1.1 0 1.3-0.8 2-0.8 0.8-2.1 0.8-1.3 0-2.1-0.7-0.8-0.8-0.8-2 0-1.1 0.7-1.7 0.7-0.7 2-0.7zm-0.3 0.9q-0.7 0-1.2 0.4-0.4 0.4-0.4 1.1 0 0.8 0.4 1.2 0.4 0.5 1.2 0.5z"/>
						<path id="DejaVuSans-63" class="s2" d="m23.4 171.9h0.8q-0.2 0.4-0.3 0.8-0.1 0.4-0.1 0.8 0 0.8 0.5 1.3 0.6 0.5 1.6 0.5 1 0 1.5-0.5 0.6-0.5 0.6-1.3 0-0.4-0.1-0.8-0.1-0.4-0.3-0.8h0.8q0.2 0.4 0.3 0.8 0.1 0.4 0.1 0.9 0 1.2-0.8 1.9-0.8 0.7-2.1 0.7-1.4 0-2.1-0.7-0.8-0.7-0.8-2 0-0.4 0.1-0.8 0.1-0.4 0.3-0.8z"/>
						<path id="DejaVuSans-61" fill-rule="evenodd" class="s2" d="m25.5 166.1h3.1v0.9h-0.8q0.5 0.3 0.7 0.7 0.3 0.5 0.3 1.2 0 0.8-0.5 1.3-0.5 0.5-1.3 0.5-0.9 0-1.4-0.6-0.4-0.6-0.4-1.9v-1.2h-0.1q-0.6 0-1 0.4-0.3 0.4-0.3 1.1 0 0.5 0.1 0.9 0.1 0.5 0.3 0.9h-0.8q-0.2-0.5-0.3-1-0.1-0.4-0.1-0.9 0-1.2 0.6-1.7 0.6-0.6 1.9-0.6zm0.4 1.8q0 1.1 0.2 1.5 0.3 0.4 0.9 0.4 0.4 0 0.7-0.3 0.3-0.3 0.3-0.9 0-0.7-0.5-1.2-0.6-0.4-1.4-0.4h-0.2z"/>
						<path id="DejaVuSans-6c" class="s2" d="m21 164.2v-0.9h7.6v0.9z"/>
						<path id="DejaVuSans-6c" class="s2" d="m21 161.4v-0.9h7.6v0.9z"/>
					</g>
				</g>
			</g>
			<g id="line2d_17">
				<g id="Clip-Path" clip-path="url(#cp1)">
					<path id="Layer" fill-rule="evenodd" class="s4" d="m73.8 289.6l0.2-1.9 0.2 7.8 0.2-13.4 0.2-2.5 0.2 8.8 0.3-7.3 0.4 7.7 0.2-6.1 0.2 10.2 0.2-22.3 0.2-6.5 0.4 19.2 0.2-19.5 0.2 8.8 0.2-7.6 0.2-0.9 0.2-0.3 0.2 4.7 0.2-13.2 0.2 2.6 0.2-8.6 0.4 4.9 0.2 14 0.2-12 0.2 3.2 0.2-3.9 0.2 2.9 0.4-9.9 0.2-0.2 0.4 13 0.2-20.5 0.2 17.2 0.2-16.3 0.3-5 0.2 13.1 0.2-12.2 0.2-0.7 0.2 21.3 0.2-3.9 0.2-13.8 0.2-28.2 0.2 43.4 0.2-20.1 0.2 20.5 0.6-12.6 0.2 5.9 0.2-23.6 0.2 15.7 0.2 3 0.2 9.3 0.2-16.3 0.2 10.8 0.2-17.1 0.2 15.1 0.2-0.6 0.2-2.3 0.2-49 0.2-6.1 0.2 56.7 0.2 0.7 0.2-11 0.2 6.9 0.2-19.4 0.2 6 0.5-9.4 0.2 36.1 0.4-28.9 0.2-6 0.2 19.3 0.2-2.1 0.2-22.5 0.2-1.5 0.4 16.4 0.2-14.2 0.2 10.5 0.2-11.2 0.2 22.4 0.2-1.1 0.2-22.1 0.2 14.8 0.2-19.7 0.2 12.1 0.2-12.4 0.2 2.4 0.2 21 0.2-8.2 0.2-2.9 0.2 10.9 0.4-12.4 0.2 1.4 0.2-1 0.4 4.4 0.3-13.4 0.2 10.9 0.2-14.6 0.2 15.3 0.2-14.6 0.2 17.3 0.2-20.6 0.2 17.7 0.2-15 0.2 9.4 0.2-10.2 0.2-3.8 0.2 19.2 0.2-7 0.2 3.7 0.2-51.6 0.4 46.8 0.2-10.7 0.2 15 0.2 2.3 0.2 16 0.2-16.4 0.2-5.2 0.2 14.1 0.2-25.7 0.2 7.1 0.4-16.6 0.2 41.2 0.4-43.2 0.2 27.5 0.3-1.7 0.4-17.1 0.2 1.2 0.2-3.1 0.2 18.6 0.2-24.8 0.4 22.7 0.4-19.3 0.2 19.5 0.2-12.1 0.2 4.6 0.2-4.6 0.2 3.9 0.2-3.6 0.2-11.1 0.2 4.5 0.2-10.6 0.2 16.3 0.2-16.2 0.2 15.6 0.2-7.1 0.2 12.9 0.2-15.3 0.2 11.9 0.2-21 0.2 20.7 0.2-1.5 0.2-7.7 0.2-26.1 0.5 32.3 0.2 3.7 0.2-6.9 0.2-15.7 0.2 13.1 0.2-7.2 0.2 10.4 0.2-16.8 0.2 17 0.2-20 0.2 5.8 0.2 0.7 0.2 12.1 0.2 0.7 0.2-13.7 0.2 2.6 0.2-6.4 0.2 7.2 0.2 15.8 0.2-30.5 0.2 13.1 0.4 7.1 0.2-0.3 0.2 1.2 0.4-14.9 0.2 40.8 0.2-44.5 0.2 0.9 0.2 16.7 0.2 6.7 0.2-2.6 0.5-14.3 0.2-4.9 0.2 17.1 0.2-2.2 0.2-20 0.2 11.9 0.2 0.7 0.4 6.3 0.2 0.4 0.2-14.9 0.2 7.9 0.2-3.3 0.2-7.6 0.2 17.5 0.2-9.7 0.2-1 0.2 0.8 0.2-8.7 0.2 2.9 0.2 9.9 0.2 2.8 0.4-19.4 0.2 9 0.2 2.3 0.2 7 0.2-16.8 0.2 3.1 0.2 18.4 0.2-20.6 0.2 14.6 0.3 0.8 0.2-22.1 0.2-1.1 0.2 3.1 0.2 18.4 0.4-7.1 0.2 0.7 0.2 5.6 0.2-10.7 0.2 7 0.2-19.5 0.2 5.4 0.2 11 0.2-11.7 0.2 9.3 0.2-3.6 0.2-6.4 0.2-27.7 0.2 41.1 0.2-9.1 0.2 14.8 0.2-10.2 0.2-3.6 0.2-8 0.2-2.6 0.2 16.8 0.2 1.7 0.2-18.3 0.2-0.3 0.2-0.8 0.2 21.7 0.2-14.7 0.3 12.2 0.2-15.7 0.2-3.3 0.2 18.6 0.2 2.8 0.4-16.4 0.2 5.9 0.2-3.6 0.2 7.1 0.2-1.2 0.2 5.8 0.2-21.8 0.2 1.1 0.2 2.9 0.2 7.4 0.2 1.3 0.2 4.4 0.2-16.8 0.2-0.3 0.2 19.6 0.2-3.8 0.2-9.9 0.2 4.6 0.2 0.4 0.2-16.1 0.2 24.8 0.2-19.9 0.2 2.1 0.2 19.4 0.2-20.6 0.2-4 0.2 18 0.3-6.8 0.2-13.7 0.2 10.5 0.2-10.5 0.2 16.5 0.2-17.7 0.2 1.4 0.4 24.3 0.2-19.2 0.2 16.9 0.2-17.4 0.2 0.7 0.2-25 0.4 40.4 0.2-4.8 0.2 1 0.2-3.8 0.2-9 0.2 7 0.2-10.7 0.2 21.3 0.2-21 0.2-4.7 0.2-0.4 0.2 13.3 0.2-15.2 0.2 16.7 0.2-5.8 0.2 6.6 0.2 2.8 0.2-21.6 0.3 15 0.4 11.8 0.2-15.9 0.2-1.2 0.2 4.9 0.2 9.7 0.2-7.8 0.2-14 0.2 5 0.2-8.8 0.2-0.4 0.2 2 0.2 14.1 0.2 4.2 0.2-22 0.2 25.8 0.2-38.9 0.2 15.5 0.2-0.5 0.2 24.8 0.2-23.3 0.2 18.3 0.2 1.1 0.2-5.3 0.2-17.9 0.2 2.9 0.2 21.7 0.2-18.7 0.2-7.5 0.2 16.1 0.4-11.3 0.5-6.3 0.2 2.5 0.4 20.6 0.2 3.7 0.2-0.1 0.2-1.4 0.6-25.5 0.2 21 0.4-18.6 0.2 8.8 0.2-4.7 0.2 9.8 0.2-14.3 0.4 7.6 0.2-1 0.2 29.2 0.2-24 0.2-5.6 0.2-0.2 0.2 9.3 0.2-8.8 0.2-0.6 0.2 8.5 0.4-15.1 0.5 18 0.2-2 0.2-8.5 0.2 12.2 0.2-27.1h0.2l0.2 9.4 0.2 15.3 0.2-0.6 0.2-15.9 0.2 0.2 0.2 13.2 0.2-4.1 0.4-16.8 0.2 10.1 0.2-1 0.2 9.1 0.2-8.6 0.4 7.7 0.2-18.5 0.4 20.7 0.4-11.6 0.4 7.6 0.2-17.6 0.2 11 0.2-9.4 0.2 6 0.2-0.5 0.3 2.2 0.2 21.7 0.2-18.1 0.2-6.8 0.2-2.7 0.2 17.5 0.2-5.3 0.2-10.8 0.2-4 0.2 14.5 0.2-2.3 0.2 7.3 0.2-20 0.2 17.7 0.2 1 0.2-19.8 0.2-1.3 0.2 22.9 0.2-1.9 0.2-3.5 0.2-6.9 0.2 8.3 0.2-15.6 0.2 9.6 0.2-9 0.4 14.8 0.2-22 0.2 7.2 0.2 11.2 0.2-3.2 0.2-9.5 0.2 0.5 0.3-7.7 0.2 9.1 0.2-0.5 0.2 28.4 0.2-39.6 0.2 0.2 0.2 11.2 0.2-11.8 0.2 22.8 0.2-13 0.2 3 0.2-0.1 0.2-3.4 0.4 13 0.2-18.6 0.2 8.5 0.2 2.3 0.2 9 0.2-12.5 0.2 0.4 0.2-2 0.2-10.5 0.2 18.3 0.2 2.4 0.2-4.5 0.2-20.8 0.2 7.4 0.2-3.1 0.2 14.7 0.2 6.1 0.2-1.4 0.2-22.1 0.3 21.9 0.2 2.7 0.2-11.3 0.2 12 0.2-8.7 0.2 23.5 0.2-26.8 0.2 0.7 0.2-9.5 0.2 16.5 0.2 4.8 0.2-0.7 0.2-9.5 0.2 4.4 0.2 1.1 0.2-13.7 0.2 0.6 0.2 9.5 0.2-19.8h0.2l0.2 25.2 0.2-7.7 0.2-12.9 0.2 5.3 0.2-3.7 0.2 8.7 0.2-8.4 0.2 7 0.4-9 0.4 19.6 0.2-19.7 0.3 15.9 0.2-7 0.2 20.3 0.2-22.5 0.2-0.7 0.2-12.7 0.2 19.1 0.2 1.2 0.2-3.4 0.2-17.3 0.2 2.2 0.2 16.7 0.2-14.2 0.2-5.2 0.2 7.7 0.2 17.2 0.2-21.5 0.2 20 0.2-2.8 0.2-20.5 0.2 20.6 0.2-1.2 0.2 0.9 0.2-20.5 0.2 1 0.2 18.9 0.2-22.1 0.2 4.9 0.2 9.3 0.2-0.3 0.2 5.5 0.2-9.9 0.2 6.8 0.5-11.3 0.2 17.1 0.4-20.8 0.2 17.2 0.2 3.7 0.2-12.3 0.2-2.6 0.2 13.6 0.2-5.2 0.2-18.5 0.2 23.7 0.2 0.7 0.2-21.4 0.2 0.4 0.2-5 0.2 1.2 0.2 17.3 0.2-40.5 0.2 21.4 0.2 6.1 0.2-2.8 0.2 6.4 0.4-3.2 0.2 8.9 0.2-14.9 0.2 25.5 0.2-26.3 0.2 5.6 0.2 19.2 0.2-22.5 0.3 22.7 0.2-19.4 0.2-0.6 0.2 14.8 0.2 1 0.2-19.8 0.4 21.3 0.2-11.4 0.2-3.4 0.2-9 0.4 14 0.2-10.7 0.2 13.7 0.2-8.9 0.2 1.3 0.2-12 0.2 12.1 0.2-10.2 0.2 5.7 0.2-3.9 0.2-1.4 0.2 20.1 0.2 3.4 0.2-26 0.2 3.3 0.2 16.7 0.2-15.8 0.2 21.3 0.2-20.2 0.2-3.9 0.2 1.3 0.3 23.1 0.4-18 0.2 1.1 0.2-9.6 0.2 23 0.2-9.8 0.4 4.1 0.2 6.2 0.2-36.9 0.4 29.4 0.2-4.8 0.2-8.4 0.2 12.7 0.2-8.9 0.2 11.3 0.2 5.1 0.2-6.6 0.2-0.9 0.2-18.5 0.2-0.7 0.2 22.3 0.2 0.4 0.2-8.6 0.2 3.1 0.2-24.2 0.2 25.6 0.2-2.7 0.2 4.3 0.2-0.5 0.2 2.5 0.5-20.1 0.2-14.2 0.2 16.4 0.2-3.8 0.2 15 0.2-4.8 0.2 5.4 0.2 1.2 0.2-1 0.2-16.5 0.6 12.7 0.4-14.6 0.2 12.2 0.2-13.8 0.2 12.6 0.4 10.6 0.2 0.2 0.2-4.6 0.2-2 0.2-7.8 0.2 12.8 0.4-6.4 0.2-0.4 0.2-1.7 0.2 1.5 0.2 6.5 0.2-17.7 0.3 18.9 0.2-16.2 0.2 7.5 0.2-0.5 0.2-9.8 0.2 12.1 0.2-16.2 0.2 22.7 0.2-23.7 0.4 18.9 0.2-0.5 0.2-14.2 0.2 4.5 0.2-6.8 0.2 19.3 0.2-2 0.2-17.4 0.2 5.2 0.2 0.8 0.2-0.5 0.2 11.5 0.2-16.1 0.8 15.9 0.2-15.2 0.2 10 0.2-4.4 0.2 13.6 0.2-26.1 0.2 0.1 0.3 25.7 0.2-37.5 0.2 15.6 0.2-5.1 0.2 13.2 0.2 1.7 0.2-7.3 0.2 18.5 0.2-26.6 0.2 6.9 0.2-3.2 0.2 15.5 0.2-15.6 0.2 4.5 0.2 16.3 0.2-6.3 0.2-0.2 0.4-11.2 0.2 14 0.2-1.5 0.4-8.4 0.2 0.2 0.2-10.7 0.2 17.4 0.2-3 0.2-15.9 0.2 20.7 0.2-16.8 0.2 21.4 0.2-2.3 0.2-21.9 0.3 18.3 0.2-20.4 0.2 1.4 0.2 18.7 0.2-12.2 0.2-3.5 0.2 13.4 0.2-13.1 0.2 15 0.2-17.5 0.2 15.9 0.2-6.5 0.2 10.3 0.2-0.4 0.2-9.1 0.2-15.6 0.2 2 0.2 13.1 0.2-6 0.2 15.5 0.2-7.4 0.2-2.7 0.2 9.7 0.2-6.1 0.2-13 0.2 2.9 0.4 17.1 0.2-14.7 0.2 13.9 0.2-23.4 0.2 0.3 0.2-0.3 0.3 19.1 0.2-19.2 0.2 2 0.2-0.7 0.2 20.1 0.2-1.3 0.2-11.4 0.2 9.7 0.2-11.5 0.2 0.6 0.2 3 0.2-2.2 0.2-4.5 0.2-1.1 0.2 18.7 0.2-26.1 0.2 12.2 0.2-9.6 0.2 0.9 0.2 19.6 0.2-11.9 0.2 2 0.4 5 0.2-16.6 0.2 14.2 0.2-11.3 0.2-1.5 0.2 16.9 0.2-0.8 0.2-13.7 0.2 0.8 0.2 13.3 0.3-18.7 0.2 15.3 0.2-19 0.2 3.4 0.2 17.1 0.2-8.3 0.2 6.1 0.2-7.3 0.4 5.5 0.2-2.4 0.2-4.5 0.2 8.4 0.2 2.6 0.2-1.4 0.2-12.7 0.2 14.4 0.4-16 0.2 14 0.2 2.6 0.2-14.3 0.2 13.7 0.2-19.1 0.2 4.6 0.2 0.6 0.2 12 0.2-13.4 0.2 17.8 0.2-21.2 0.2 9.7 0.2 0.3 0.2-7.2 0.3 3.4 0.2 14.5 0.4-25.1 0.2 15.4 0.2-0.7 0.2-2.1 0.2 2.7 0.2 10.2 0.2-7.8 0.2 4.8 0.2-0.1 0.2-7.1 0.2-15.5 0.2 24.3 0.2-0.7 0.2-5.7 0.2 5.2 0.2-21.1 0.2 0.8 0.2 3.1 0.2 12.6 0.2 0.5 0.2-7.2 0.2 7.4 0.2-3.2 0.2 7.2 0.2-16.5 0.2 8.1 0.2-13.7 0.2 35 0.2-39.4 0.2 8.2 0.3-3.2 0.2 15.6 0.4-21.1 0.2-0.4 0.2 23.9 0.2 1.7 0.2-24.9 0.4 6.4 0.2 17.2 0.4-17.6 0.2 10.3 0.2-15.5 0.4 18 0.2-10.2 0.2 4.6 0.2 7.6 0.2 1.1 0.4-18.1 0.4 18.2 0.2-16.8 0.2 8.5 0.2-5 0.2-10.2 0.2 17.5 0.2-3.3 0.2 2.5 0.3-17.3 0.2 21.4 0.2-19.2 0.2 20.8 0.2-14 0.2-0.9 0.2 12.1 0.2-4.6 0.2 5.9 0.2-20.1 0.2 13.9 0.2-8.9 0.2 16.3 0.2-14.9 0.2 7.5 0.4-16.5 0.2 13.3 0.2-0.5 0.2 5.1 0.2-20.8 0.2 8.6 0.2-3.4 0.2 18.6 0.2-3.5 0.2-15.3 0.4 14.6 0.4-9.2 0.2 1.1 0.2 13.8 0.2-24.9 0.3 8.9 0.2 0.9 0.4-10 0.2 22.6 0.2-12.1 0.2-0.2 0.2-1.8 0.2 10.5 0.2-16 0.2 20.2 0.2-22.1 0.2 6.6 0.2 0.7 0.2 9.4 0.2-10.6 0.2 2.5 0.4 8.7 0.2-16.7 0.2 1.3 0.2-4.8 0.4 5.5 0.2 15.3 0.2-10.7 0.2 10.9 0.2-20.4 0.2 13.3 0.2-13.8 0.2 3.9 0.2 11.5 0.2-12.8 0.3-5.3 0.2 3.2 0.2 11.9 0.2-2.9 0.2-12.5 0.2 11.7 0.2-6.3 0.2-0.1 0.2 9.2 0.2-12 0.4 16.3 0.2-7.6 0.2 7.6 0.2-4.3 0.2-9.1 0.6 8.7 0.2 5.8 0.2 9.2 0.2-20.5 0.2 8.4 0.2-13.3 0.2 6.8 0.2-3.8 0.4 10.3 0.2-13.1 0.2 8.6 0.2 2.4 0.2-13.1 0.2 18.9 0.3-5.9 0.2 5.7 0.6-8.5 0.2 10 0.2-8.9 0.2-0.8 0.2 0.7 0.2 1.8 0.2 3.8 0.2-15.9 0.4 10.7 0.2 14.5 0.2-14.8 0.2 2.9 0.2 6 0.2-9.1 0.2 2.8 0.2-8.1 0.4 3.8 0.2-0.7 0.2 4.3 0.2-11 0.2 3.3 0.2-2.2 0.2 15.3 0.2-17.6 0.2 3.8 0.2 0.7h0.2l0.3 10.2 0.2-8.1 0.2 8.9 0.2-7.6 0.2 7.6 0.2-6.5 0.2 8.7 0.2 0.8 0.2-17.1 0.2 1.9 0.2 15.6 0.2-10.2 0.4-1.5 0.2 0.6 0.2 8.7 0.2-8.1 0.4-4.3 0.2 2.1 0.2 7.4 0.2-10.8 0.2 5.3 0.2-3.5 0.2 2.1 0.2-3.8 0.2 3 0.2-0.7 0.4 12.9 0.2-5.7 0.2-8.9 0.2 0.9 0.3 2.8 0.2 10.2 0.2-5.3 0.2 1.7 0.2-12.5 0.2 1.4 0.2 8.3 0.2-9.8 0.2 8.8 0.2-8.4 0.2-1.1 0.2 17.3 0.2-10 0.2-0.8 0.2 0.9 0.2-1.7 0.2 7.3 0.4-9.6 0.2 14.4 0.2-7.9 0.2-0.1 0.2-10.1 0.2 14.9 0.2 1.5 0.4-12 0.2-2.2 0.2 9.4 0.4 4.4 0.2-14.3 0.2 3.3 0.3-3.9 0.2 14.6 0.4-12.8 0.2-1.2 0.2 9.4 0.2-4.5 0.2 12.4 0.2-12.2 0.2 7 0.2-9.2 0.2-3 0.2 16.4 0.2-14.7 0.2 12.5 0.2-9 0.2 2.6 0.2-9.6 0.2 15 0.2 1.1 0.2-15.7 0.2 15.1 0.2-12.6 0.2 4.4 0.2-0.6 0.2-5.3 0.4 17.9 0.4-14.8h0.2l0.2 5.8 0.2-6.6 0.3 12.7 0.2-4.2 0.2-10.5 0.2 2.7 0.4 12.9 0.2-3 0.2-11.5 0.2 6.5 0.2-6 0.2 1.8 0.2 14 0.2 1.5 0.2-9 0.2 2 0.2-3.6 0.2-7.1 0.2-1.9 0.2 7.2 0.2-4.1 0.2 11.6 0.2-13.9 0.2 0.3 0.2 15.6 0.2-14 0.2 8.8 0.2-1.8 0.2-9.6 0.2 6.5 0.2-7.6 0.2 0.1 0.2 18.6 0.2 0.3 0.3-8.3 0.2 6.5 0.2-15.5 0.2 13.2 0.2 4.6 0.2-18.7 0.2 12.6 0.2 0.1 0.2-10.2 0.2 8.8 0.2-9.3 0.6 15.7 0.2-9.8 0.2 3.9 0.2-11.1 0.2 5 0.2-2.2 0.4 8.1 0.2-1.2 0.2-8.3 0.2 12.4 0.2-4.3 0.2 8.5 0.2-15.7 0.2 14.9 0.4-12 0.4 7.2 0.2-3.5 0.3-0.6 0.2 8.3 0.2 0.3 0.4-15.8 0.2 4.1 0.2 1 0.2 1.9 0.2-1.6 0.2 5.8 0.2-12.1 0.2-0.4 0.2 10.4 0.4 6.2 0.2-3.2 0.2-12.6 0.2 15.7 0.2 1.7 0.2 2.7 0.2-8.7 0.2-0.5 0.2 4.7 0.2-10.3 0.2 1.4 0.2 8.5 0.2 1.6 0.2-3.4 0.2-1.1 0.2-14.9 0.2 12.6 0.2 4.5 0.2-14.5 0.3 8.5 0.2-8.7 0.2 2 0.2 8.5 0.2-8.6 0.2 15.3 0.2-13.2 0.2 11.2 0.4-14.9 0.2 17.2 0.2-4.6 0.2 1.7 0.2-13.9 0.2-1.6 0.2 6.7 0.2 10.8 0.2-3.5 0.2 4.1 0.2-14.4 0.2-3.2 0.2 14 0.2-11.9 0.2 14.7 0.2-3.9 0.2-14.4 0.4 15.2 0.2-2.6 0.2-1 0.2 3.8 0.2-11 0.2 14.5 0.3-14.9 0.2 13.5 0.2-13.2 0.2 4.8 0.2-2.8 0.2 8.7 0.2-9.6 0.2 12.4 0.4-15.8 0.2 10 0.2 0.6 0.2-0.6 0.2-9.9 0.2-0.3 0.4 14.1 0.2-9.7 0.2 6.7 0.2-2.7 0.2 11.3 0.2-16 0.2 7 0.2-1.4 0.2-2.5 0.2 0.8 0.2 2.8 0.2 1.1 0.2-13.2 0.2 15 0.2 2.1 0.2-17.4 0.2 6.6 0.3 1.5 0.2-9 0.2 9.6 0.4-5.8 0.2 11.4 0.2-10.1 0.2 1.5 0.2-2.8 0.2 0.5 0.4 10.9 0.2-3.1 0.2-7.7 0.2 7.6 0.2 2.9 0.2-6.8 0.2 7.2 0.2 0.5 0.2-2.3 0.2 8.5 0.2-20.8 0.2-0.1 0.2 10.9 0.2-4.6 0.2 6.8 0.2-13.3 0.2 15.2 0.2 0.6 0.2-8.4 0.2-0.5 0.2 8.3 0.2-5.6 0.3-1.7 0.2-4.9 0.2-1.8 0.4 10.4 0.2 1.4 0.2-7.7 0.2 4 0.2-7.2 0.2-0.1 0.2 14.9 0.2-6.1 0.2-0.9 0.2 4.8 0.2-10.7 0.2 0.1 0.4 7.2 0.4-11 0.2 8.6 0.2-2.7 0.2 8.1 0.2 0.9 0.2-2.1 0.2 2.7 0.2-3 0.4-11.9 0.4 10.9 0.2-8.4 0.5 12.8 0.4-11.6 0.2 3.1 0.2 0.4 0.2-6.6 0.2 15.7 0.2 0.6 0.2-15.8 0.2 4.2 0.2-5.6 0.2 0.4 0.4 8.5 0.2 1.5 0.2-0.1 0.2 2 0.2-10.8 0.2 5.2 0.2 9.9 0.2-8.7 0.2 9 0.2-14.7 0.2 10.4 0.2-12.9 0.2-1.2 0.2 12.3 0.2-10.1 0.4 11.5 0.2-12.6 0.4 12 0.3-5.2 0.2 2.9 0.2-4.3 0.2 10.7 0.2-3.9 0.2 4.8 0.2-2.5 0.2-13.4 0.2 11.6 0.2 3.8 0.2-10.3 0.2 9 0.2-8.3 0.2 10.1 0.2-9.4 0.2 6.6 0.4-11.1 0.2 12.9 0.4-10.2 0.2 6.5 0.2-0.9 0.2 4.2 0.2-2.9 0.2-10.1 0.2-0.2 0.2 4.2 0.2-2.6 0.2-4.4 0.2 16h0.2l0.3-10.8 0.2 10 0.2 0.4 0.2-0.5 0.2-4.4 0.2 3.9 0.2-7.8 0.2 6.1 0.2 2.1 0.6-14.7 0.2 15.5 0.6-13.2 0.2 1.5 0.2 9.4 0.2-6 0.2 5.7 0.2-4.9 0.2 6.5 0.4-5 0.2-4.5 0.2-1.3 0.2 12.4 0.2-15.4 0.2 16.7 0.2-13.7 0.2 1.3 0.2 2.7 0.5-7.3 0.4 12.9 0.2 4.4 0.2-17.6 0.2 14.5 0.2-14.7 0.2 18.5 0.2-5.8 0.2-10.9 0.2-1.6 0.2 15.6 0.2-17.1 0.2 10.2 0.2-5.6 0.2-1.4 0.2 12.8 0.2-7 0.2 0.5 0.2-6.8 0.2 9.5 0.2-8.8 0.4 17.7 0.2-11.7 0.2-0.5 0.2-7.3 0.4 15.6 0.2-6.6 0.2 2.4 0.4-11.2 0.3 8.9 0.2 4 0.2-7.9 0.2 6.7 0.4-12.1 0.2 3.7 0.2 9.6 0.2 0.5 0.2-0.4 0.2-0.8 0.2-9.6 0.2 6.2 0.2-5.4 0.2 1.4 0.2-3.9 0.2 12.6 0.2-14.1 0.2 10.4 0.2 3 0.2-0.8 0.2-0.3 0.2-5.2 0.2 2.2 0.2 0.1 0.4-2.2 0.2-0.9 0.2 3.9 0.4-1.7 0.2 2.8 0.2-8.1 0.3 5.1 0.2-4.1 0.2 10.8 0.2-7.7 0.2 1.7 0.2 3.6 0.2-4.1 0.2-7.4 0.2 8.8 0.2 3.5 0.2-4.9 0.2-2.1 0.2 5.9 0.2-1.9 0.4-7.4 0.2 7.5 0.2 1.7 0.2-9.1 0.2-2.9 0.2 6.7 0.2-3.5 0.2 7.8 0.4-10.9 0.2 15.6 0.2-9.7 0.2-2 0.2 6.8 0.2-5.9 0.2 3.3 0.2 1 0.2-10.5 0.3 11.5 0.2-8.4 0.2 11.2 0.2-6.4 0.2 5.8 0.6-13.6 0.2 1.9 0.4 14.1 0.2-15.9 0.2 1.8"/>
				</g>
			</g>
			<g id="patch_3">
				<path id="Layer" fill-rule="evenodd" class="s5" d="m57.6 307.6v-266.1"/>
			</g>
			<g id="patch_4">
				<path id="Layer" fill-rule="evenodd" class="s5" d="m414.7 307.6v-266.1"/>
			</g>
			<g id="patch_5">
				<path id="Layer" fill-rule="evenodd" class="s5" d="m57.6 307.6h357.1"/>
			</g>
			<g id="patch_6">
				<path id="Layer" fill-rule="evenodd" class="s5" d="m57.6 41.5h357.1"/>
			</g>
			<g id="text_19">
				<g id="Layer">
					<path id="DejaVuSans-52" fill-rule="evenodd" class="s2" d="m204 31.4q0.4 0.1 0.7 0.5 0.4 0.4 0.7 1.2l1.2 2.4h-1.2l-1.1-2.3q-0.5-0.9-0.9-1.1-0.4-0.3-1.1-0.3h-1.3v3.7h-1.2v-8.8h2.7q1.5 0 2.2 0.7 0.8 0.6 0.8 1.8 0 0.9-0.4 1.4-0.4 0.6-1.1 0.8zm-3-3.7v3.1h1.5q0.9 0 1.3-0.4 0.4-0.4 0.4-1.2 0-0.7-0.4-1.1-0.4-0.4-1.3-0.4z"/>
					<path id="DejaVuSans-65" fill-rule="evenodd" class="s2" d="m213.2 31.9v0.5h-5q0.1 1.2 0.7 1.7 0.6 0.6 1.7 0.6 0.6 0 1.2-0.1 0.6-0.2 1.1-0.5v1q-0.5 0.3-1.1 0.4-0.7 0.1-1.3 0.1-1.6 0-2.5-0.9-0.9-0.9-0.9-2.4 0-1.7 0.9-2.6 0.9-0.9 2.3-0.9 1.4 0 2.1 0.8 0.8 0.9 0.8 2.3zm-1.1-0.3q0-0.9-0.5-1.4-0.5-0.5-1.3-0.5-0.9 0-1.4 0.5-0.5 0.5-0.6 1.4z"/>
					<path id="DejaVuSans-63" class="s2" d="m219.7 29.2v1q-0.5-0.3-0.9-0.4-0.5-0.1-1-0.1-1 0-1.6 0.6-0.6 0.7-0.6 1.9 0 1.2 0.6 1.9 0.6 0.6 1.6 0.6 0.5 0 1-0.1 0.4-0.1 0.9-0.4v1q-0.5 0.2-1 0.3-0.4 0.1-1 0.1-1.5 0-2.3-0.9-0.9-0.9-0.9-2.5 0-1.6 0.9-2.5 0.9-0.9 2.4-0.9 0.5 0 1 0.1 0.4 0.1 0.9 0.3z"/>
					<path id="DejaVuSans-61" fill-rule="evenodd" class="s2" d="m226.7 31.7v3.8h-1.1v-1q-0.4 0.6-0.9 0.9-0.6 0.2-1.4 0.2-1 0-1.6-0.5-0.6-0.6-0.6-1.5 0-1.1 0.8-1.7 0.7-0.6 2.2-0.6h1.5v-0.1q0-0.7-0.5-1.1-0.5-0.4-1.3-0.4-0.6 0-1.1 0.1-0.6 0.1-1.1 0.4v-1q0.6-0.2 1.2-0.3 0.5-0.1 1.1-0.1 1.4 0 2.1 0.7 0.7 0.7 0.7 2.2zm-2.2 0.5q-1.3 0-1.8 0.3-0.5 0.3-0.5 1 0 0.6 0.4 0.9 0.4 0.3 1 0.3 0.9 0 1.5-0.6 0.5-0.6 0.5-1.7v-0.2z"/>
					<path id="DejaVuSans-6c" class="s2" d="m228.9 26.4h1.1v9.1h-1.1z"/>
					<path id="DejaVuSans-6c" class="s2" d="m232.2 26.4h1.1v9.1h-1.1z"/>
					<path id="DejaVuSans-20" class="s2" d=""/>
					<path id="DejaVuSans-43" class="s2" d="m246 27.4v1.2q-0.6-0.5-1.3-0.8-0.7-0.3-1.4-0.3-1.5 0-2.3 1-0.8 0.9-0.8 2.6 0 1.7 0.8 2.7 0.8 0.9 2.3 0.9 0.7 0 1.4-0.3 0.7-0.3 1.3-0.8v1.2q-0.6 0.4-1.3 0.6-0.7 0.2-1.5 0.2-2 0-3.1-1.2-1.2-1.2-1.2-3.3 0-2.1 1.2-3.3 1.1-1.2 3.1-1.2 0.8 0 1.5 0.2 0.7 0.2 1.3 0.6z"/>
					<path id="DejaVuSans-75" class="s2" d="m247.7 32.9v-4h1v3.9q0 1 0.4 1.4 0.4 0.5 1.1 0.5 0.9 0 1.4-0.6 0.5-0.5 0.5-1.5v-3.7h1.1v6.6h-1.1v-1q-0.4 0.6-0.9 0.9-0.5 0.2-1.2 0.2-1.2 0-1.8-0.7-0.5-0.7-0.5-2z"/>
					<path id="DejaVuSans-72" class="s2" d="m259.2 29.9q-0.2-0.1-0.4-0.1-0.2-0.1-0.5-0.1-0.9 0-1.4 0.6-0.5 0.6-0.5 1.7v3.5h-1.1v-6.6h1.1v1q0.4-0.6 0.9-0.9 0.6-0.2 1.3-0.2 0.1 0 0.3 0 0.1 0 0.3 0z"/>
					<path id="DejaVuSans-76" class="s2" d="m259.5 28.9h1.2l2 5.5 2.1-5.5h1.1l-2.4 6.6h-1.5z"/>
					<path id="DejaVuSans-65" fill-rule="evenodd" class="s2" d="m273 31.9v0.5h-4.9q0 1.2 0.6 1.7 0.6 0.6 1.7 0.6 0.6 0 1.2-0.1 0.6-0.2 1.2-0.5v1q-0.6 0.3-1.2 0.4-0.6 0.1-1.2 0.1-1.6 0-2.5-0.9-1-0.9-1-2.4 0-1.7 0.9-2.6 0.9-0.9 2.4-0.9 1.3 0 2.1 0.8 0.7 0.9 0.7 2.3zm-1-0.3q-0.1-0.9-0.5-1.4-0.5-0.5-1.3-0.5-0.9 0-1.5 0.5-0.5 0.5-0.6 1.4z"/>
				</g>
			</g>
		</g>
	</g>
</svg>