<?xml version="1.0" encoding="utf-8" standalone="no"?>
<!DOCTYPE svg PUBLIC "-//W3C//DTD SVG 1.1//EN"
  "http://www.w3.org/Graphics/SVG/1.1/DTD/svg11.dtd">
<svg xmlns:xlink="http://www.w3.org/1999/xlink" width="460.8pt" height="345.6pt" viewBox="0 0 460.8 345.6" xmlns="http://www.w3.org/2000/svg" version="1.1">
 <metadata>
  <rdf:RDF xmlns:dc="http://purl.org/dc/elements/1.1/" xmlns:cc="http://creativecommons.org/ns#" xmlns:rdf="http://www.w3.org/1999/02/22-rdf-syntax-ns#">
   <cc:Work>
    <dc:type rdf:resource="http://purl.org/dc/dcmitype/StillImage"/>
    <dc:date>2023-10-19T13:51:48.782209</dc:date>
    <dc:format>image/svg+xml</dc:format>
    <dc:creator>
     <cc:Agent>
      <dc:title>Matplotlib v3.7.2, https://matplotlib.org/</dc:title>
     </cc:Agent>
    </dc:creator>
   </cc:Work>
  </rdf:RDF>
 </metadata>
 <defs>
  <style type="text/css">*{stroke-linejoin: round; stroke-linecap: butt}</style>
 </defs>
 <g id="figure_1">
  <g id="patch_1">
   <path d="M 0 345.6 
L 460.8 345.6 
L 460.8 0 
L 0 0 
z
" style="fill: #ffffff"/>
  </g>
  <g id="axes_1">
   <g id="patch_2">
    <path d="M 57.6 307.584 
L 414.72 307.584 
L 414.72 41.472 
L 57.6 41.472 
z
" style="fill: #ffffff"/>
   </g>
   <g id="matplotlib.axis_1">
    <g id="xtick_1">
     <g id="line2d_1">
      <defs>
       <path id="m5713453820" d="M 0 0 
L 0 3.5 
" style="stroke: #000000; stroke-width: 0.8"/>
      </defs>
      <g>
       <use xlink:href="#m5713453820" x="73.832727" y="307.584" style="stroke: #000000; stroke-width: 0.8"/>
      </g>
     </g>
     <g id="text_1">
      <!-- 0 -->
      <g transform="translate(70.651477 322.182437) scale(0.1 -0.1)">
       <defs>
        <path id="DejaVuSans-30" d="M 2034 4250 
Q 1547 4250 1301 3770 
Q 1056 3291 1056 2328 
Q 1056 1369 1301 889 
Q 1547 409 2034 409 
Q 2525 409 2770 889 
Q 3016 1369 3016 2328 
Q 3016 3291 2770 3770 
Q 2525 4250 2034 4250 
z
M 2034 4750 
Q 2819 4750 3233 4129 
Q 3647 3509 3647 2328 
Q 3647 1150 3233 529 
Q 2819 -91 2034 -91 
Q 1250 -91 836 529 
Q 422 1150 422 2328 
Q 422 3509 836 4129 
Q 1250 4750 2034 4750 
z
" transform="scale(0.015625)"/>
       </defs>
       <use xlink:href="#DejaVuSans-30"/>
      </g>
     </g>
    </g>
    <g id="xtick_2">
     <g id="line2d_2">
      <g>
       <use xlink:href="#m5713453820" x="114.414545" y="307.584" style="stroke: #000000; stroke-width: 0.8"/>
      </g>
     </g>
     <g id="text_2">
      <!-- 25000 -->
      <g transform="translate(98.508295 322.182437) scale(0.1 -0.1)">
       <defs>
        <path id="DejaVuSans-32" d="M 1228 531 
L 3431 531 
L 3431 0 
L 469 0 
L 469 531 
Q 828 903 1448 1529 
Q 2069 2156 2228 2338 
Q 2531 2678 2651 2914 
Q 2772 3150 2772 3378 
Q 2772 3750 2511 3984 
Q 2250 4219 1831 4219 
Q 1534 4219 1204 4116 
Q 875 4013 500 3803 
L 500 4441 
Q 881 4594 1212 4672 
Q 1544 4750 1819 4750 
Q 2544 4750 2975 4387 
Q 3406 4025 3406 3419 
Q 3406 3131 3298 2873 
Q 3191 2616 2906 2266 
Q 2828 2175 2409 1742 
Q 1991 1309 1228 531 
z
" transform="scale(0.015625)"/>
        <path id="DejaVuSans-35" d="M 691 4666 
L 3169 4666 
L 3169 4134 
L 1269 4134 
L 1269 2991 
Q 1406 3038 1543 3061 
Q 1681 3084 1819 3084 
Q 2600 3084 3056 2656 
Q 3513 2228 3513 1497 
Q 3513 744 3044 326 
Q 2575 -91 1722 -91 
Q 1428 -91 1123 -41 
Q 819 9 494 109 
L 494 744 
Q 775 591 1075 516 
Q 1375 441 1709 441 
Q 2250 441 2565 725 
Q 2881 1009 2881 1497 
Q 2881 1984 2565 2268 
Q 2250 2553 1709 2553 
Q 1456 2553 1204 2497 
Q 953 2441 691 2322 
L 691 4666 
z
" transform="scale(0.015625)"/>
       </defs>
       <use xlink:href="#DejaVuSans-32"/>
       <use xlink:href="#DejaVuSans-35" x="63.623047"/>
       <use xlink:href="#DejaVuSans-30" x="127.246094"/>
       <use xlink:href="#DejaVuSans-30" x="190.869141"/>
       <use xlink:href="#DejaVuSans-30" x="254.492188"/>
      </g>
     </g>
    </g>
    <g id="xtick_3">
     <g id="line2d_3">
      <g>
       <use xlink:href="#m5713453820" x="154.996364" y="307.584" style="stroke: #000000; stroke-width: 0.8"/>
      </g>
     </g>
     <g id="text_3">
      <!-- 50000 -->
      <g transform="translate(139.090114 322.182437) scale(0.1 -0.1)">
       <use xlink:href="#DejaVuSans-35"/>
       <use xlink:href="#DejaVuSans-30" x="63.623047"/>
       <use xlink:href="#DejaVuSans-30" x="127.246094"/>
       <use xlink:href="#DejaVuSans-30" x="190.869141"/>
       <use xlink:href="#DejaVuSans-30" x="254.492188"/>
      </g>
     </g>
    </g>
    <g id="xtick_4">
     <g id="line2d_4">
      <g>
       <use xlink:href="#m5713453820" x="195.578182" y="307.584" style="stroke: #000000; stroke-width: 0.8"/>
      </g>
     </g>
     <g id="text_4">
      <!-- 75000 -->
      <g transform="translate(179.671932 322.182437) scale(0.1 -0.1)">
       <defs>
        <path id="DejaVuSans-37" d="M 525 4666 
L 3525 4666 
L 3525 4397 
L 1831 0 
L 1172 0 
L 2766 4134 
L 525 4134 
L 525 4666 
z
" transform="scale(0.015625)"/>
       </defs>
       <use xlink:href="#DejaVuSans-37"/>
       <use xlink:href="#DejaVuSans-35" x="63.623047"/>
       <use xlink:href="#DejaVuSans-30" x="127.246094"/>
       <use xlink:href="#DejaVuSans-30" x="190.869141"/>
       <use xlink:href="#DejaVuSans-30" x="254.492188"/>
      </g>
     </g>
    </g>
    <g id="xtick_5">
     <g id="line2d_5">
      <g>
       <use xlink:href="#m5713453820" x="236.16" y="307.584" style="stroke: #000000; stroke-width: 0.8"/>
      </g>
     </g>
     <g id="text_5">
      <!-- 100000 -->
      <g transform="translate(217.0725 322.182437) scale(0.1 -0.1)">
       <defs>
        <path id="DejaVuSans-31" d="M 794 531 
L 1825 531 
L 1825 4091 
L 703 3866 
L 703 4441 
L 1819 4666 
L 2450 4666 
L 2450 531 
L 3481 531 
L 3481 0 
L 794 0 
L 794 531 
z
" transform="scale(0.015625)"/>
       </defs>
       <use xlink:href="#DejaVuSans-31"/>
       <use xlink:href="#DejaVuSans-30" x="63.623047"/>
       <use xlink:href="#DejaVuSans-30" x="127.246094"/>
       <use xlink:href="#DejaVuSans-30" x="190.869141"/>
       <use xlink:href="#DejaVuSans-30" x="254.492188"/>
       <use xlink:href="#DejaVuSans-30" x="318.115234"/>
      </g>
     </g>
    </g>
    <g id="xtick_6">
     <g id="line2d_6">
      <g>
       <use xlink:href="#m5713453820" x="276.741818" y="307.584" style="stroke: #000000; stroke-width: 0.8"/>
      </g>
     </g>
     <g id="text_6">
      <!-- 125000 -->
      <g transform="translate(257.654318 322.182437) scale(0.1 -0.1)">
       <use xlink:href="#DejaVuSans-31"/>
       <use xlink:href="#DejaVuSans-32" x="63.623047"/>
       <use xlink:href="#DejaVuSans-35" x="127.246094"/>
       <use xlink:href="#DejaVuSans-30" x="190.869141"/>
       <use xlink:href="#DejaVuSans-30" x="254.492188"/>
       <use xlink:href="#DejaVuSans-30" x="318.115234"/>
      </g>
     </g>
    </g>
    <g id="xtick_7">
     <g id="line2d_7">
      <g>
       <use xlink:href="#m5713453820" x="317.323636" y="307.584" style="stroke: #000000; stroke-width: 0.8"/>
      </g>
     </g>
     <g id="text_7">
      <!-- 150000 -->
      <g transform="translate(298.236136 322.182437) scale(0.1 -0.1)">
       <use xlink:href="#DejaVuSans-31"/>
       <use xlink:href="#DejaVuSans-35" x="63.623047"/>
       <use xlink:href="#DejaVuSans-30" x="127.246094"/>
       <use xlink:href="#DejaVuSans-30" x="190.869141"/>
       <use xlink:href="#DejaVuSans-30" x="254.492188"/>
       <use xlink:href="#DejaVuSans-30" x="318.115234"/>
      </g>
     </g>
    </g>
    <g id="xtick_8">
     <g id="line2d_8">
      <g>
       <use xlink:href="#m5713453820" x="357.905455" y="307.584" style="stroke: #000000; stroke-width: 0.8"/>
      </g>
     </g>
     <g id="text_8">
      <!-- 175000 -->
      <g transform="translate(338.817955 322.182437) scale(0.1 -0.1)">
       <use xlink:href="#DejaVuSans-31"/>
       <use xlink:href="#DejaVuSans-37" x="63.623047"/>
       <use xlink:href="#DejaVuSans-35" x="127.246094"/>
       <use xlink:href="#DejaVuSans-30" x="190.869141"/>
       <use xlink:href="#DejaVuSans-30" x="254.492188"/>
       <use xlink:href="#DejaVuSans-30" x="318.115234"/>
      </g>
     </g>
    </g>
    <g id="xtick_9">
     <g id="line2d_9">
      <g>
       <use xlink:href="#m5713453820" x="398.487273" y="307.584" style="stroke: #000000; stroke-width: 0.8"/>
      </g>
     </g>
     <g id="text_9">
      <!-- 200000 -->
      <g transform="translate(379.399773 322.182437) scale(0.1 -0.1)">
       <use xlink:href="#DejaVuSans-32"/>
       <use xlink:href="#DejaVuSans-30" x="63.623047"/>
       <use xlink:href="#DejaVuSans-30" x="127.246094"/>
       <use xlink:href="#DejaVuSans-30" x="190.869141"/>
       <use xlink:href="#DejaVuSans-30" x="254.492188"/>
       <use xlink:href="#DejaVuSans-30" x="318.115234"/>
      </g>
     </g>
    </g>
    <g id="text_10">
     <!-- Iterations -->
     <g transform="translate(212.346719 335.860562) scale(0.1 -0.1)">
      <defs>
       <path id="DejaVuSans-49" d="M 628 4666 
L 1259 4666 
L 1259 0 
L 628 0 
L 628 4666 
z
" transform="scale(0.015625)"/>
       <path id="DejaVuSans-74" d="M 1172 4494 
L 1172 3500 
L 2356 3500 
L 2356 3053 
L 1172 3053 
L 1172 1153 
Q 1172 725 1289 603 
Q 1406 481 1766 481 
L 2356 481 
L 2356 0 
L 1766 0 
Q 1100 0 847 248 
Q 594 497 594 1153 
L 594 3053 
L 172 3053 
L 172 3500 
L 594 3500 
L 594 4494 
L 1172 4494 
z
" transform="scale(0.015625)"/>
       <path id="DejaVuSans-65" d="M 3597 1894 
L 3597 1613 
L 953 1613 
Q 991 1019 1311 708 
Q 1631 397 2203 397 
Q 2534 397 2845 478 
Q 3156 559 3463 722 
L 3463 178 
Q 3153 47 2828 -22 
Q 2503 -91 2169 -91 
Q 1331 -91 842 396 
Q 353 884 353 1716 
Q 353 2575 817 3079 
Q 1281 3584 2069 3584 
Q 2775 3584 3186 3129 
Q 3597 2675 3597 1894 
z
M 3022 2063 
Q 3016 2534 2758 2815 
Q 2500 3097 2075 3097 
Q 1594 3097 1305 2825 
Q 1016 2553 972 2059 
L 3022 2063 
z
" transform="scale(0.015625)"/>
       <path id="DejaVuSans-72" d="M 2631 2963 
Q 2534 3019 2420 3045 
Q 2306 3072 2169 3072 
Q 1681 3072 1420 2755 
Q 1159 2438 1159 1844 
L 1159 0 
L 581 0 
L 581 3500 
L 1159 3500 
L 1159 2956 
Q 1341 3275 1631 3429 
Q 1922 3584 2338 3584 
Q 2397 3584 2469 3576 
Q 2541 3569 2628 3553 
L 2631 2963 
z
" transform="scale(0.015625)"/>
       <path id="DejaVuSans-61" d="M 2194 1759 
Q 1497 1759 1228 1600 
Q 959 1441 959 1056 
Q 959 750 1161 570 
Q 1363 391 1709 391 
Q 2188 391 2477 730 
Q 2766 1069 2766 1631 
L 2766 1759 
L 2194 1759 
z
M 3341 1997 
L 3341 0 
L 2766 0 
L 2766 531 
Q 2569 213 2275 61 
Q 1981 -91 1556 -91 
Q 1019 -91 701 211 
Q 384 513 384 1019 
Q 384 1609 779 1909 
Q 1175 2209 1959 2209 
L 2766 2209 
L 2766 2266 
Q 2766 2663 2505 2880 
Q 2244 3097 1772 3097 
Q 1472 3097 1187 3025 
Q 903 2953 641 2809 
L 641 3341 
Q 956 3463 1253 3523 
Q 1550 3584 1831 3584 
Q 2591 3584 2966 3190 
Q 3341 2797 3341 1997 
z
" transform="scale(0.015625)"/>
       <path id="DejaVuSans-69" d="M 603 3500 
L 1178 3500 
L 1178 0 
L 603 0 
L 603 3500 
z
M 603 4863 
L 1178 4863 
L 1178 4134 
L 603 4134 
L 603 4863 
z
" transform="scale(0.015625)"/>
       <path id="DejaVuSans-6f" d="M 1959 3097 
Q 1497 3097 1228 2736 
Q 959 2375 959 1747 
Q 959 1119 1226 758 
Q 1494 397 1959 397 
Q 2419 397 2687 759 
Q 2956 1122 2956 1747 
Q 2956 2369 2687 2733 
Q 2419 3097 1959 3097 
z
M 1959 3584 
Q 2709 3584 3137 3096 
Q 3566 2609 3566 1747 
Q 3566 888 3137 398 
Q 2709 -91 1959 -91 
Q 1206 -91 779 398 
Q 353 888 353 1747 
Q 353 2609 779 3096 
Q 1206 3584 1959 3584 
z
" transform="scale(0.015625)"/>
       <path id="DejaVuSans-6e" d="M 3513 2113 
L 3513 0 
L 2938 0 
L 2938 2094 
Q 2938 2591 2744 2837 
Q 2550 3084 2163 3084 
Q 1697 3084 1428 2787 
Q 1159 2491 1159 1978 
L 1159 0 
L 581 0 
L 581 3500 
L 1159 3500 
L 1159 2956 
Q 1366 3272 1645 3428 
Q 1925 3584 2291 3584 
Q 2894 3584 3203 3211 
Q 3513 2838 3513 2113 
z
" transform="scale(0.015625)"/>
       <path id="DejaVuSans-73" d="M 2834 3397 
L 2834 2853 
Q 2591 2978 2328 3040 
Q 2066 3103 1784 3103 
Q 1356 3103 1142 2972 
Q 928 2841 928 2578 
Q 928 2378 1081 2264 
Q 1234 2150 1697 2047 
L 1894 2003 
Q 2506 1872 2764 1633 
Q 3022 1394 3022 966 
Q 3022 478 2636 193 
Q 2250 -91 1575 -91 
Q 1294 -91 989 -36 
Q 684 19 347 128 
L 347 722 
Q 666 556 975 473 
Q 1284 391 1588 391 
Q 1994 391 2212 530 
Q 2431 669 2431 922 
Q 2431 1156 2273 1281 
Q 2116 1406 1581 1522 
L 1381 1569 
Q 847 1681 609 1914 
Q 372 2147 372 2553 
Q 372 3047 722 3315 
Q 1072 3584 1716 3584 
Q 2034 3584 2315 3537 
Q 2597 3491 2834 3397 
z
" transform="scale(0.015625)"/>
      </defs>
      <use xlink:href="#DejaVuSans-49"/>
      <use xlink:href="#DejaVuSans-74" x="29.492188"/>
      <use xlink:href="#DejaVuSans-65" x="68.701172"/>
      <use xlink:href="#DejaVuSans-72" x="130.224609"/>
      <use xlink:href="#DejaVuSans-61" x="171.337891"/>
      <use xlink:href="#DejaVuSans-74" x="232.617188"/>
      <use xlink:href="#DejaVuSans-69" x="271.826172"/>
      <use xlink:href="#DejaVuSans-6f" x="299.609375"/>
      <use xlink:href="#DejaVuSans-6e" x="360.791016"/>
      <use xlink:href="#DejaVuSans-73" x="424.169922"/>
     </g>
    </g>
   </g>
   <g id="matplotlib.axis_2">
    <g id="ytick_1">
     <g id="line2d_10">
      <defs>
       <path id="m5e847437c5" d="M 0 0 
L -3.5 0 
" style="stroke: #000000; stroke-width: 0.8"/>
      </defs>
      <g>
       <use xlink:href="#m5e847437c5" x="57.6" y="283.013504" style="stroke: #000000; stroke-width: 0.8"/>
      </g>
     </g>
     <g id="text_11">
      <!-- 0.3 -->
      <g transform="translate(34.696875 286.812723) scale(0.1 -0.1)">
       <defs>
        <path id="DejaVuSans-2e" d="M 684 794 
L 1344 794 
L 1344 0 
L 684 0 
L 684 794 
z
" transform="scale(0.015625)"/>
        <path id="DejaVuSans-33" d="M 2597 2516 
Q 3050 2419 3304 2112 
Q 3559 1806 3559 1356 
Q 3559 666 3084 287 
Q 2609 -91 1734 -91 
Q 1441 -91 1130 -33 
Q 819 25 488 141 
L 488 750 
Q 750 597 1062 519 
Q 1375 441 1716 441 
Q 2309 441 2620 675 
Q 2931 909 2931 1356 
Q 2931 1769 2642 2001 
Q 2353 2234 1838 2234 
L 1294 2234 
L 1294 2753 
L 1863 2753 
Q 2328 2753 2575 2939 
Q 2822 3125 2822 3475 
Q 2822 3834 2567 4026 
Q 2313 4219 1838 4219 
Q 1578 4219 1281 4162 
Q 984 4106 628 3988 
L 628 4550 
Q 988 4650 1302 4700 
Q 1616 4750 1894 4750 
Q 2613 4750 3031 4423 
Q 3450 4097 3450 3541 
Q 3450 3153 3228 2886 
Q 3006 2619 2597 2516 
z
" transform="scale(0.015625)"/>
       </defs>
       <use xlink:href="#DejaVuSans-30"/>
       <use xlink:href="#DejaVuSans-2e" x="63.623047"/>
       <use xlink:href="#DejaVuSans-33" x="95.410156"/>
      </g>
     </g>
    </g>
    <g id="ytick_2">
     <g id="line2d_11">
      <g>
       <use xlink:href="#m5e847437c5" x="57.6" y="247.329271" style="stroke: #000000; stroke-width: 0.8"/>
      </g>
     </g>
     <g id="text_12">
      <!-- 0.4 -->
      <g transform="translate(34.696875 251.12849) scale(0.1 -0.1)">
       <defs>
        <path id="DejaVuSans-34" d="M 2419 4116 
L 825 1625 
L 2419 1625 
L 2419 4116 
z
M 2253 4666 
L 3047 4666 
L 3047 1625 
L 3713 1625 
L 3713 1100 
L 3047 1100 
L 3047 0 
L 2419 0 
L 2419 1100 
L 313 1100 
L 313 1709 
L 2253 4666 
z
" transform="scale(0.015625)"/>
       </defs>
       <use xlink:href="#DejaVuSans-30"/>
       <use xlink:href="#DejaVuSans-2e" x="63.623047"/>
       <use xlink:href="#DejaVuSans-34" x="95.410156"/>
      </g>
     </g>
    </g>
    <g id="ytick_3">
     <g id="line2d_12">
      <g>
       <use xlink:href="#m5e847437c5" x="57.6" y="211.645037" style="stroke: #000000; stroke-width: 0.8"/>
      </g>
     </g>
     <g id="text_13">
      <!-- 0.5 -->
      <g transform="translate(34.696875 215.444256) scale(0.1 -0.1)">
       <use xlink:href="#DejaVuSans-30"/>
       <use xlink:href="#DejaVuSans-2e" x="63.623047"/>
       <use xlink:href="#DejaVuSans-35" x="95.410156"/>
      </g>
     </g>
    </g>
    <g id="ytick_4">
     <g id="line2d_13">
      <g>
       <use xlink:href="#m5e847437c5" x="57.6" y="175.960804" style="stroke: #000000; stroke-width: 0.8"/>
      </g>
     </g>
     <g id="text_14">
      <!-- 0.6 -->
      <g transform="translate(34.696875 179.760022) scale(0.1 -0.1)">
       <defs>
        <path id="DejaVuSans-36" d="M 2113 2584 
Q 1688 2584 1439 2293 
Q 1191 2003 1191 1497 
Q 1191 994 1439 701 
Q 1688 409 2113 409 
Q 2538 409 2786 701 
Q 3034 994 3034 1497 
Q 3034 2003 2786 2293 
Q 2538 2584 2113 2584 
z
M 3366 4563 
L 3366 3988 
Q 3128 4100 2886 4159 
Q 2644 4219 2406 4219 
Q 1781 4219 1451 3797 
Q 1122 3375 1075 2522 
Q 1259 2794 1537 2939 
Q 1816 3084 2150 3084 
Q 2853 3084 3261 2657 
Q 3669 2231 3669 1497 
Q 3669 778 3244 343 
Q 2819 -91 2113 -91 
Q 1303 -91 875 529 
Q 447 1150 447 2328 
Q 447 3434 972 4092 
Q 1497 4750 2381 4750 
Q 2619 4750 2861 4703 
Q 3103 4656 3366 4563 
z
" transform="scale(0.015625)"/>
       </defs>
       <use xlink:href="#DejaVuSans-30"/>
       <use xlink:href="#DejaVuSans-2e" x="63.623047"/>
       <use xlink:href="#DejaVuSans-36" x="95.410156"/>
      </g>
     </g>
    </g>
    <g id="ytick_5">
     <g id="line2d_14">
      <g>
       <use xlink:href="#m5e847437c5" x="57.6" y="140.27657" style="stroke: #000000; stroke-width: 0.8"/>
      </g>
     </g>
     <g id="text_15">
      <!-- 0.7 -->
      <g transform="translate(34.696875 144.075789) scale(0.1 -0.1)">
       <use xlink:href="#DejaVuSans-30"/>
       <use xlink:href="#DejaVuSans-2e" x="63.623047"/>
       <use xlink:href="#DejaVuSans-37" x="95.410156"/>
      </g>
     </g>
    </g>
    <g id="ytick_6">
     <g id="line2d_15">
      <g>
       <use xlink:href="#m5e847437c5" x="57.6" y="104.592337" style="stroke: #000000; stroke-width: 0.8"/>
      </g>
     </g>
     <g id="text_16">
      <!-- 0.8 -->
      <g transform="translate(34.696875 108.391555) scale(0.1 -0.1)">
       <defs>
        <path id="DejaVuSans-38" d="M 2034 2216 
Q 1584 2216 1326 1975 
Q 1069 1734 1069 1313 
Q 1069 891 1326 650 
Q 1584 409 2034 409 
Q 2484 409 2743 651 
Q 3003 894 3003 1313 
Q 3003 1734 2745 1975 
Q 2488 2216 2034 2216 
z
M 1403 2484 
Q 997 2584 770 2862 
Q 544 3141 544 3541 
Q 544 4100 942 4425 
Q 1341 4750 2034 4750 
Q 2731 4750 3128 4425 
Q 3525 4100 3525 3541 
Q 3525 3141 3298 2862 
Q 3072 2584 2669 2484 
Q 3125 2378 3379 2068 
Q 3634 1759 3634 1313 
Q 3634 634 3220 271 
Q 2806 -91 2034 -91 
Q 1263 -91 848 271 
Q 434 634 434 1313 
Q 434 1759 690 2068 
Q 947 2378 1403 2484 
z
M 1172 3481 
Q 1172 3119 1398 2916 
Q 1625 2713 2034 2713 
Q 2441 2713 2670 2916 
Q 2900 3119 2900 3481 
Q 2900 3844 2670 4047 
Q 2441 4250 2034 4250 
Q 1625 4250 1398 4047 
Q 1172 3844 1172 3481 
z
" transform="scale(0.015625)"/>
       </defs>
       <use xlink:href="#DejaVuSans-30"/>
       <use xlink:href="#DejaVuSans-2e" x="63.623047"/>
       <use xlink:href="#DejaVuSans-38" x="95.410156"/>
      </g>
     </g>
    </g>
    <g id="ytick_7">
     <g id="line2d_16">
      <g>
       <use xlink:href="#m5e847437c5" x="57.6" y="68.908103" style="stroke: #000000; stroke-width: 0.8"/>
      </g>
     </g>
     <g id="text_17">
      <!-- 0.9 -->
      <g transform="translate(34.696875 72.707322) scale(0.1 -0.1)">
       <defs>
        <path id="DejaVuSans-39" d="M 703 97 
L 703 672 
Q 941 559 1184 500 
Q 1428 441 1663 441 
Q 2288 441 2617 861 
Q 2947 1281 2994 2138 
Q 2813 1869 2534 1725 
Q 2256 1581 1919 1581 
Q 1219 1581 811 2004 
Q 403 2428 403 3163 
Q 403 3881 828 4315 
Q 1253 4750 1959 4750 
Q 2769 4750 3195 4129 
Q 3622 3509 3622 2328 
Q 3622 1225 3098 567 
Q 2575 -91 1691 -91 
Q 1453 -91 1209 -44 
Q 966 3 703 97 
z
M 1959 2075 
Q 2384 2075 2632 2365 
Q 2881 2656 2881 3163 
Q 2881 3666 2632 3958 
Q 2384 4250 1959 4250 
Q 1534 4250 1286 3958 
Q 1038 3666 1038 3163 
Q 1038 2656 1286 2365 
Q 1534 2075 1959 2075 
z
" transform="scale(0.015625)"/>
       </defs>
       <use xlink:href="#DejaVuSans-30"/>
       <use xlink:href="#DejaVuSans-2e" x="63.623047"/>
       <use xlink:href="#DejaVuSans-39" x="95.410156"/>
      </g>
     </g>
    </g>
    <g id="text_18">
     <!-- Recall -->
     <g transform="translate(28.617187 189.445188) rotate(-90) scale(0.1 -0.1)">
      <defs>
       <path id="DejaVuSans-52" d="M 2841 2188 
Q 3044 2119 3236 1894 
Q 3428 1669 3622 1275 
L 4263 0 
L 3584 0 
L 2988 1197 
Q 2756 1666 2539 1819 
Q 2322 1972 1947 1972 
L 1259 1972 
L 1259 0 
L 628 0 
L 628 4666 
L 2053 4666 
Q 2853 4666 3247 4331 
Q 3641 3997 3641 3322 
Q 3641 2881 3436 2590 
Q 3231 2300 2841 2188 
z
M 1259 4147 
L 1259 2491 
L 2053 2491 
Q 2509 2491 2742 2702 
Q 2975 2913 2975 3322 
Q 2975 3731 2742 3939 
Q 2509 4147 2053 4147 
L 1259 4147 
z
" transform="scale(0.015625)"/>
       <path id="DejaVuSans-63" d="M 3122 3366 
L 3122 2828 
Q 2878 2963 2633 3030 
Q 2388 3097 2138 3097 
Q 1578 3097 1268 2742 
Q 959 2388 959 1747 
Q 959 1106 1268 751 
Q 1578 397 2138 397 
Q 2388 397 2633 464 
Q 2878 531 3122 666 
L 3122 134 
Q 2881 22 2623 -34 
Q 2366 -91 2075 -91 
Q 1284 -91 818 406 
Q 353 903 353 1747 
Q 353 2603 823 3093 
Q 1294 3584 2113 3584 
Q 2378 3584 2631 3529 
Q 2884 3475 3122 3366 
z
" transform="scale(0.015625)"/>
       <path id="DejaVuSans-6c" d="M 603 4863 
L 1178 4863 
L 1178 0 
L 603 0 
L 603 4863 
z
" transform="scale(0.015625)"/>
      </defs>
      <use xlink:href="#DejaVuSans-52"/>
      <use xlink:href="#DejaVuSans-65" x="64.982422"/>
      <use xlink:href="#DejaVuSans-63" x="126.505859"/>
      <use xlink:href="#DejaVuSans-61" x="181.486328"/>
      <use xlink:href="#DejaVuSans-6c" x="242.765625"/>
      <use xlink:href="#DejaVuSans-6c" x="270.548828"/>
     </g>
    </g>
   </g>
   <g id="line2d_17">
    <path d="M 73.832727 295.488 
L 74.035763 295.130164 
L 74.238799 280.094608 
L 74.441835 276.514657 
L 74.847907 274.568183 
L 75.050943 283.275356 
L 75.253979 266.841 
L 75.457015 279.564335 
L 75.660051 265.525582 
L 75.863087 277.192629 
L 76.066123 271.47091 
L 76.269159 277.65329 
L 76.472195 240.766538 
L 76.675231 263.408464 
L 76.878267 258.748799 
L 77.081303 258.034599 
L 77.487375 266.755388 
L 77.690411 282.472097 
L 78.096483 251.549541 
L 78.299519 257.137641 
L 78.502555 255.150359 
L 78.705591 245.808507 
L 78.908627 262.937469 
L 79.314699 249.795339 
L 79.517735 259.949268 
L 79.720771 245.583577 
L 79.923807 250.682166 
L 80.126843 236.857618 
L 80.329879 255.929886 
L 80.532915 245.111963 
L 80.735951 241.645725 
L 80.938987 246.93897 
L 81.142023 225.917659 
L 81.345059 252.138693 
L 81.548095 235.681658 
L 81.751131 246.190943 
L 81.954167 245.826916 
L 82.157203 235.200624 
L 82.563275 242.538604 
L 82.766311 229.250574 
L 82.969347 239.557735 
L 83.172383 222.07853 
L 83.375419 240.203243 
L 83.578455 226.944977 
L 83.781491 245.338635 
L 83.984527 241.736509 
L 84.187563 243.241636 
L 84.390599 225.147323 
L 84.593635 231.167971 
L 84.796671 242.641517 
L 84.999707 239.295168 
L 85.202743 222.691043 
L 85.405779 228.030691 
L 85.608815 222.538955 
L 85.811851 236.612435 
L 86.014887 231.519763 
L 86.217923 234.854162 
L 86.420959 234.590857 
L 86.623995 228.166633 
L 86.827031 237.026231 
L 87.233103 235.833231 
L 87.436138 215.837577 
L 87.639174 232.064103 
L 87.84221 198.555264 
L 88.045246 212.921967 
L 88.248282 219.299864 
L 88.451318 213.580955 
L 88.654354 228.593992 
L 88.85739 230.091833 
L 89.060426 223.540069 
L 89.263462 210.674356 
L 89.466498 227.29729 
L 89.669534 215.263628 
L 89.87257 223.702412 
L 90.278642 211.666233 
L 90.481678 215.270719 
L 90.684714 216.576458 
L 90.88775 218.670766 
L 91.090786 210.724593 
L 91.496858 221.731149 
L 91.699894 204.825421 
L 91.90293 206.289637 
L 92.105966 212.797131 
L 92.309002 210.83421 
L 92.512038 213.163682 
L 92.715074 221.685934 
L 92.91811 213.928321 
L 93.121146 217.768798 
L 93.324182 211.106184 
L 93.527218 221.426161 
L 93.730254 209.509383 
L 93.93329 211.526526 
L 94.136326 207.799521 
L 94.339362 200.096174 
L 94.542398 200.118296 
L 94.94847 235.419683 
L 95.151506 209.998341 
L 95.354542 206.444083 
L 95.557578 215.050022 
L 95.760614 211.453209 
L 95.96365 197.152636 
L 96.166686 208.450826 
L 96.369722 203.821541 
L 96.572758 203.274045 
L 96.97883 196.201172 
L 97.181866 214.671678 
L 97.384902 203.172742 
L 97.587938 200.640824 
L 97.790974 207.24186 
L 97.99401 193.641715 
L 98.197046 212.474911 
L 98.603118 193.45935 
L 98.806154 207.598031 
L 99.00919 190.19069 
L 99.212226 206.919519 
L 99.415262 200.938029 
L 99.618298 206.990989 
L 100.02437 197.196243 
L 100.227406 200.740468 
L 100.430442 198.608931 
L 100.633478 207.331583 
L 100.836514 187.774859 
L 101.242586 198.334799 
L 101.445622 191.502331 
L 101.648658 193.116222 
L 101.851694 186.709558 
L 102.05473 196.016614 
L 102.257766 199.531957 
L 102.460802 196.279797 
L 102.866874 184.085075 
L 103.06991 175.448901 
L 103.272946 192.78196 
L 103.679018 189.936595 
L 103.882054 196.287946 
L 104.08509 191.362759 
L 104.288126 192.398211 
L 104.491162 189.691046 
L 104.694198 183.104611 
L 104.897233 197.872492 
L 105.100269 201.11914 
L 105.303305 182.885539 
L 105.506341 200.395565 
L 106.115449 186.92232 
L 106.318485 188.239989 
L 106.521521 194.406077 
L 106.724557 195.547077 
L 106.927593 190.940565 
L 107.130629 197.323236 
L 107.333665 195.050263 
L 107.536701 188.244743 
L 107.739737 189.69873 
L 107.942773 182.487247 
L 108.145809 187.780996 
L 108.348845 177.046544 
L 108.551881 183.358258 
L 108.754917 193.628437 
L 108.957953 177.828127 
L 109.160989 187.556721 
L 109.364025 179.904347 
L 109.567061 213.441737 
L 109.770097 174.254712 
L 109.973133 193.504434 
L 110.379205 184.614981 
L 110.582241 174.994556 
L 110.785277 185.662827 
L 110.988313 182.355264 
L 111.191349 186.303893 
L 111.394385 185.889682 
L 111.597421 176.903585 
L 111.800457 185.848234 
L 112.003493 186.72771 
L 112.206529 176.400398 
L 112.409565 172.712557 
L 112.612601 178.960378 
L 112.815637 173.237488 
L 113.018673 182.065578 
L 113.221709 168.096806 
L 113.424745 175.554269 
L 113.627781 170.11576 
L 113.830817 182.142876 
L 114.033853 182.366958 
L 114.236889 172.727402 
L 114.439925 181.564539 
L 114.642961 169.489583 
L 114.845997 184.127806 
L 115.049033 174.39902 
L 115.252069 186.224698 
L 115.455105 170.318068 
L 115.861177 180.892811 
L 116.064213 174.141889 
L 116.267249 185.141222 
L 116.470285 164.326612 
L 116.673321 182.060579 
L 116.876357 168.228901 
L 117.282429 178.267938 
L 117.485465 172.191707 
L 117.688501 180.498424 
L 117.891537 161.795646 
L 118.094573 171.429747 
L 118.297609 161.760064 
L 118.500645 177.68097 
L 118.703681 173.794657 
L 118.906717 172.437425 
L 119.109753 172.827822 
L 119.312789 164.679767 
L 119.515825 164.291013 
L 119.718861 161.263215 
L 119.921897 161.548506 
L 120.124933 177.26875 
L 120.327969 173.341152 
L 120.531005 172.239761 
L 120.937077 177.132493 
L 121.140113 164.791832 
L 121.343149 162.466783 
L 121.546185 171.068164 
L 121.749221 174.810509 
L 121.952257 160.400575 
L 122.155293 170.757524 
L 122.358329 158.132411 
L 122.561364 160.319972 
L 122.7644 175.738162 
L 123.170472 158.156866 
L 123.373508 157.17727 
L 123.576544 163.817385 
L 123.77958 164.681816 
L 123.982616 160.015971 
L 124.185652 172.026766 
L 124.388688 173.091539 
L 124.591724 156.793734 
L 124.79476 169.61624 
L 124.997796 165.344786 
L 125.403868 172.95928 
L 125.606904 189.283746 
L 126.012976 162.703391 
L 126.216012 171.396233 
L 126.622084 167.228276 
L 126.82512 156.950249 
L 127.231192 154.930451 
L 127.637264 151.791991 
L 127.8403 169.804086 
L 128.043336 156.297668 
L 128.246372 160.251703 
L 128.449408 155.644364 
L 128.652444 158.069855 
L 128.85548 168.648626 
L 129.261552 155.225451 
L 129.464588 153.763602 
L 129.667624 162.078863 
L 129.87066 150.551782 
L 130.073696 153.035235 
L 130.276732 164.970542 
L 130.479768 161.272456 
L 130.682804 165.521017 
L 130.88584 165.379099 
L 131.088876 152.666298 
L 131.291912 151.80073 
L 131.494948 161.673624 
L 131.697984 160.38801 
L 131.90102 157.642166 
L 132.104056 158.629304 
L 132.307092 177.591995 
L 132.510128 152.183415 
L 132.713164 158.391569 
L 133.119236 160.121007 
L 133.322272 154.347217 
L 133.525308 160.204487 
L 133.728344 156.73359 
L 133.93138 162.890335 
L 134.134416 148.298068 
L 134.337452 154.685676 
L 134.540488 145.680873 
L 134.743524 157.408863 
L 134.94656 153.728359 
L 135.149596 161.075175 
L 135.352632 147.288863 
L 135.555668 155.188765 
L 135.758704 158.571672 
L 136.164776 139.985298 
L 136.367812 153.298545 
L 136.570848 145.587902 
L 136.773884 154.073208 
L 136.97692 143.887078 
L 137.179956 158.009278 
L 137.586028 146.656755 
L 137.789064 147.312228 
L 137.9921 152.747912 
L 138.195136 140.254782 
L 138.398172 141.955215 
L 138.601208 141.368618 
L 139.00728 147.926275 
L 139.210316 136.866658 
L 139.413352 142.564005 
L 139.616388 143.630176 
L 139.819424 153.389778 
L 140.022459 155.954177 
L 140.225495 155.330723 
L 140.428531 139.741292 
L 140.631567 139.776667 
L 140.834603 138.402896 
L 141.037639 142.640677 
L 141.240675 150.667735 
L 141.443711 138.152401 
L 141.849783 153.291818 
L 142.052819 146.599676 
L 142.255855 145.259051 
L 142.458891 142.71728 
L 142.661927 136.746293 
L 142.864963 142.668124 
L 143.067999 136.180327 
L 143.271035 149.002199 
L 143.474071 136.064289 
L 143.677107 139.462023 
L 143.880143 124.185896 
L 144.083179 152.558474 
L 144.286215 132.034348 
L 144.489251 143.343563 
L 144.692287 139.666752 
L 144.895323 147.487955 
L 145.301395 133.375243 
L 145.504431 149.409083 
L 145.707467 139.74245 
L 145.910503 142.002877 
L 146.113539 141.243489 
L 146.316575 134.106426 
L 146.519611 138.097133 
L 146.722647 148.165661 
L 146.925683 148.118661 
L 147.128719 132.987648 
L 147.331755 131.313039 
L 147.534791 128.474656 
L 147.737827 131.982997 
L 147.940863 137.936073 
L 148.143899 133.898487 
L 148.346935 139.450897 
L 148.549971 133.280543 
L 148.753007 144.628718 
L 148.956043 142.902997 
L 149.159079 128.601817 
L 149.362115 131.802123 
L 149.565151 140.132536 
L 149.768187 129.729303 
L 149.971223 136.880288 
L 150.174259 131.230476 
L 150.377295 133.601027 
L 150.783367 156.234242 
L 150.986403 129.009996 
L 151.189439 141.494536 
L 151.392475 140.378288 
L 151.595511 144.232579 
L 152.001583 127.024831 
L 152.204619 138.57584 
L 152.407655 135.49995 
L 152.610691 124.164581 
L 152.813727 134.130795 
L 153.016763 119.241691 
L 153.219799 131.151536 
L 153.625871 136.835831 
L 153.828907 129.710857 
L 154.031943 130.979603 
L 154.234979 129.297299 
L 154.438015 140.280229 
L 154.844087 122.290336 
L 155.047123 137.755285 
L 155.250159 113.647369 
L 155.453195 139.89767 
L 155.656231 134.991869 
L 155.859267 133.035293 
L 156.062303 138.701219 
L 156.265339 129.59986 
L 156.468375 132.186678 
L 156.671411 125.746083 
L 157.077483 140.197956 
L 157.280519 122.238344 
L 157.483554 137.849363 
L 157.68659 138.775663 
L 157.889626 125.731852 
L 158.092662 122.839761 
L 158.295698 131.734777 
L 158.498734 124.649482 
L 158.70177 126.893729 
L 158.904806 125.917014 
L 159.107842 125.603431 
L 159.310878 122.327648 
L 159.513914 134.689323 
L 159.71695 132.116047 
L 159.919986 133.370849 
L 160.123022 136.847975 
L 160.326058 116.225522 
L 160.935166 133.693673 
L 161.138202 117.955265 
L 161.341238 129.895725 
L 161.544274 118.525052 
L 161.950346 125.904283 
L 162.153382 116.616394 
L 162.356418 118.037886 
L 162.559454 133.021531 
L 162.76249 129.598601 
L 162.965526 114.4553 
L 163.168562 134.512159 
L 163.371598 117.109075 
L 163.574634 122.741782 
L 163.77767 131.616876 
L 163.980706 127.976667 
L 164.183742 131.993888 
L 164.386778 117.764169 
L 164.79285 130.865638 
L 164.995886 133.244589 
L 165.198922 130.108185 
L 165.401958 130.964093 
L 165.80803 119.345424 
L 166.011066 126.028742 
L 166.214102 137.246937 
L 166.417138 110.950323 
L 166.620174 128.452848 
L 166.82321 111.289932 
L 167.026246 128.135012 
L 167.229282 115.272681 
L 167.432318 110.65908 
L 167.635354 125.613014 
L 167.83839 129.386238 
L 168.041426 126.15479 
L 168.244462 112.531733 
L 168.447498 129.779577 
L 168.650534 117.578945 
L 168.85357 114.143321 
L 169.056606 118.875992 
L 169.259642 118.711528 
L 169.462678 117.560877 
L 169.665714 123.441148 
L 169.86875 118.425124 
L 170.071786 116.254804 
L 170.274822 104.177348 
L 170.477858 122.080264 
L 170.680894 113.516673 
L 170.88393 120.314648 
L 171.086966 122.033129 
L 171.290002 107.876029 
L 171.493038 120.886046 
L 171.696074 111.686409 
L 171.89911 127.101524 
L 172.102146 123.154443 
L 172.305182 113.71923 
L 172.508218 124.374304 
L 172.711254 113.158072 
L 172.91429 116.8431 
L 173.117326 122.933691 
L 173.320362 119.114399 
L 173.523398 106.857648 
L 173.726434 118.527868 
L 173.92947 119.282542 
L 174.132506 117.453842 
L 174.335542 114.041022 
L 174.538578 122.671253 
L 174.741614 107.295857 
L 174.944649 121.166846 
L 175.147685 111.570866 
L 175.350721 121.957397 
L 175.553757 105.089269 
L 175.756793 120.223668 
L 175.959829 112.517164 
L 176.162865 118.833471 
L 176.365901 106.220069 
L 176.568937 110.882934 
L 176.771973 122.171088 
L 176.975009 107.243692 
L 177.178045 114.279027 
L 177.584117 117.360615 
L 177.787153 121.259938 
L 177.990189 129.682274 
L 178.193225 104.275883 
L 178.396261 110.850461 
L 178.599297 111.571031 
L 178.802333 118.684228 
L 179.005369 110.225839 
L 179.208405 106.57741 
L 179.614477 110.796685 
L 179.817513 102.404014 
L 180.020549 119.159609 
L 180.426621 103.133122 
L 180.629657 108.375272 
L 180.832693 101.231286 
L 181.238765 115.717086 
L 181.441801 115.175668 
L 181.644837 105.349676 
L 181.847873 105.678901 
L 182.050909 115.003743 
L 182.253945 98.386091 
L 182.456981 107.184991 
L 182.863053 102.803459 
L 183.066089 113.053649 
L 183.269125 91.265152 
L 183.472161 105.247585 
L 183.675197 97.587684 
L 183.878233 96.632797 
L 184.284305 112.560891 
L 184.487341 107.638974 
L 184.690377 107.770949 
L 184.893413 97.27713 
L 185.096449 115.373931 
L 185.299485 113.174759 
L 185.502521 114.129561 
L 185.705557 98.049522 
L 185.908593 92.274434 
L 186.517701 113.387679 
L 186.720737 96.79446 
L 187.126809 112.267564 
L 187.329845 110.629752 
L 187.532881 95.202692 
L 187.735917 111.211591 
L 187.938953 114.475332 
L 188.141989 111.180579 
L 188.345025 95.632443 
L 188.548061 96.095462 
L 188.751097 113.856275 
L 188.954133 94.402319 
L 189.157169 113.105537 
L 189.563241 93.736634 
L 189.766277 103.797523 
L 189.969313 106.548249 
L 190.172349 105.895801 
L 190.375385 93.487623 
L 190.578421 93.223057 
L 190.781457 104.127921 
L 190.984493 97.760658 
L 191.187529 107.64831 
L 191.390565 105.235592 
L 191.796637 95.907525 
L 191.999673 106.591367 
L 192.202709 108.757604 
L 192.405744 107.094391 
L 192.60878 95.144568 
L 192.811816 104.776201 
L 193.014852 100.236878 
L 193.217888 101.116245 
L 193.420924 106.528382 
L 193.826996 99.429329 
L 194.030032 89.419309 
L 194.436104 108.552052 
L 194.63914 97.616332 
L 194.842176 117.106937 
L 195.045212 89.640756 
L 195.451284 108.548702 
L 196.060392 93.440506 
L 196.263428 93.213693 
L 196.466464 96.867093 
L 196.6695 105.071483 
L 196.872536 90.9493 
L 197.075572 88.08033 
L 197.481644 99.12412 
L 197.68468 89.120039 
L 197.887716 92.692993 
L 198.090752 90.329702 
L 198.293788 97.071308 
L 198.496824 99.964566 
L 198.69986 94.130208 
L 198.902896 102.341401 
L 199.105932 90.633265 
L 199.308968 98.767074 
L 199.512004 86.708178 
L 199.71504 114.789319 
L 199.918076 98.709516 
L 200.121112 101.431168 
L 200.324148 87.628893 
L 200.527184 87.237219 
L 200.73022 93.48167 
L 200.933256 104.478538 
L 201.136292 86.72238 
L 201.339328 88.353565 
L 201.542364 83.863757 
L 201.7454 84.954877 
L 201.948436 88.597231 
L 202.151472 83.079163 
L 202.354508 99.830889 
L 202.557544 84.500357 
L 202.76058 88.566406 
L 202.963616 83.291121 
L 203.166652 82.467867 
L 203.369688 97.989494 
L 203.572724 90.331565 
L 203.77576 91.770326 
L 203.978796 84.884572 
L 204.181832 102.566945 
L 204.384868 90.296053 
L 204.587904 91.164805 
L 204.79094 81.600585 
L 204.993976 109.098232 
L 205.197012 83.231186 
L 205.603084 97.146081 
L 205.80612 96.499747 
L 206.212192 90.997945 
L 206.415228 100.620412 
L 206.618264 96.179948 
L 206.8213 80.390671 
L 207.024336 85.534413 
L 207.227372 72.464351 
L 207.430408 82.067024 
L 207.633444 82.819503 
L 207.83648 96.913977 
L 208.039516 78.865285 
L 208.242552 80.671639 
L 208.445588 99.039803 
L 208.648624 93.50847 
L 208.85166 93.191147 
L 209.054696 93.484445 
L 209.257732 84.03173 
L 209.460768 90.077931 
L 209.663804 84.424847 
L 209.86684 90.940695 
L 210.069875 79.620538 
L 210.272911 94.516815 
L 210.475947 95.600701 
L 210.882019 79.274198 
L 211.085055 95.392348 
L 211.288091 87.246608 
L 211.694163 102.205451 
L 211.897199 84.01702 
L 212.100235 94.881475 
L 212.303271 80.751644 
L 212.506307 76.738326 
L 212.709343 75.972656 
L 212.912379 83.575257 
L 213.115415 77.194839 
L 213.318451 81.169439 
L 213.521487 95.289698 
L 213.724523 87.584699 
L 213.927559 88.037575 
L 214.130595 94.577007 
L 214.333631 95.002872 
L 214.536667 82.741823 
L 214.739703 81.620582 
L 214.942739 89.083955 
L 215.145775 84.946715 
L 215.348811 90.418346 
L 215.551847 75.665405 
L 215.754883 92.785992 
L 215.957919 92.546491 
L 216.160955 77.790552 
L 216.363991 77.251168 
L 216.567027 80.931247 
L 216.770063 81.406468 
L 216.973099 79.284782 
L 217.176135 91.173768 
L 217.379171 78.368523 
L 217.582207 73.640703 
L 217.785243 89.340577 
L 217.988279 77.379845 
L 218.191315 82.886083 
L 218.394351 77.055171 
L 218.597387 91.362441 
L 218.800423 90.791523 
L 219.003459 73.794388 
L 219.206495 90.019486 
L 219.409531 73.960627 
L 219.612567 84.570137 
L 219.815603 65.993666 
L 220.018639 84.954795 
L 220.221675 75.512228 
L 220.424711 89.968145 
L 220.627747 80.461123 
L 220.830783 90.563229 
L 221.033819 70.812788 
L 221.236855 75.395404 
L 221.439891 73.66567 
L 221.642927 85.632927 
L 221.845963 71.907469 
L 222.048999 87.027143 
L 222.252035 80.393442 
L 222.455071 83.940421 
L 222.658107 71.009191 
L 222.861143 83.159052 
L 223.064179 87.593833 
L 223.267215 74.840499 
L 223.470251 77.146455 
L 223.673287 78.097556 
L 223.876323 71.214977 
L 224.079359 83.479786 
L 224.282395 74.871063 
L 224.485431 79.58761 
L 224.688467 69.364878 
L 224.891503 68.644983 
L 225.094539 87.089647 
L 225.906683 67.275337 
L 226.109719 83.390339 
L 226.312755 67.213339 
L 226.515791 79.269346 
L 226.718827 66.254376 
L 227.124899 86.033555 
L 227.327935 71.080754 
L 227.53097 73.036336 
L 227.734006 69.772432 
L 228.140078 79.062017 
L 228.749186 67.966363 
L 228.952222 81.35873 
L 229.155258 66.78046 
L 229.358294 65.76552 
L 229.56133 70.91154 
L 229.764366 65.494628 
L 230.170438 76.711637 
L 230.373474 65.388517 
L 230.57651 76.191564 
L 230.779546 76.776844 
L 230.982582 84.036628 
L 231.185618 63.560213 
L 231.388654 75.582558 
L 231.59169 77.21976 
L 231.794726 64.36376 
L 231.997762 78.179474 
L 232.200798 62.45122 
L 232.809906 76.677362 
L 233.012942 72.66298 
L 233.215978 99.195975 
L 233.62205 62.762443 
L 233.825086 75.365805 
L 234.028122 72.58165 
L 234.231158 74.363421 
L 234.434194 67.462127 
L 234.63723 78.607946 
L 234.840266 64.873653 
L 235.043302 60.920268 
L 235.246338 78.500499 
L 235.449374 66.760288 
L 235.65241 81.153058 
L 235.855446 78.149849 
L 236.058482 58.840723 
L 236.261518 80.734363 
L 236.464554 70.143875 
L 236.66759 74.112964 
L 236.870626 64.468523 
L 237.073662 78.355871 
L 237.276698 74.099087 
L 237.479734 75.22147 
L 237.68277 70.276256 
L 237.885806 79.579626 
L 238.088842 67.132936 
L 238.291878 68.025826 
L 238.494914 71.709556 
L 238.69795 65.858083 
L 238.900986 65.475176 
L 239.104022 64.635435 
L 239.307058 60.187314 
L 239.510094 71.491565 
L 239.71313 64.291411 
L 239.916166 71.736924 
L 240.119202 72.207373 
L 240.322238 77.434689 
L 240.72831 59.728316 
L 240.931346 68.547947 
L 241.134382 71.26824 
L 241.540454 63.029847 
L 241.74349 62.546757 
L 241.946526 76.235884 
L 242.149562 74.554009 
L 242.352598 60.961132 
L 242.555634 72.704662 
L 242.75867 67.365912 
L 242.961706 58.793065 
L 243.164742 73.689152 
L 243.367778 65.204648 
L 243.570814 61.525827 
L 243.77385 69.462646 
L 243.976886 57.623845 
L 244.179922 70.648824 
L 244.382958 67.163024 
L 244.78903 75.615234 
L 244.992065 66.482938 
L 245.195101 73.143258 
L 245.398137 60.877927 
L 245.601173 71.403761 
L 246.007245 64.679505 
L 246.210281 65.964969 
L 246.413317 70.187052 
L 246.616353 71.886837 
L 246.819389 61.08472 
L 247.022425 60.143352 
L 247.225461 73.608883 
L 247.428497 72.852698 
L 247.631533 68.787825 
L 247.834569 71.695977 
L 248.037605 63.67363 
L 248.443677 65.899214 
L 248.646713 63.06163 
L 248.849749 58.449101 
L 249.052785 61.27135 
L 249.255821 56.357625 
L 249.864929 68.859696 
L 250.067965 57.115463 
L 250.271001 67.422183 
L 250.474037 60.794226 
L 250.880109 63.002052 
L 251.083145 58.698322 
L 251.286181 60.969576 
L 251.489217 66.156589 
L 251.692253 57.708405 
L 251.895289 57.84542 
L 252.098325 65.000586 
L 252.301361 56.942096 
L 252.504397 59.665587 
L 252.707433 67.05754 
L 252.910469 62.296605 
L 253.113505 60.221742 
L 253.316541 65.504025 
L 253.519577 65.301547 
L 253.722613 63.150975 
L 253.925649 66.800875 
L 254.128685 58.777409 
L 254.331721 57.80546 
L 254.534757 64.286341 
L 254.737793 62.419267 
L 254.940829 69.214398 
L 255.143865 58.95309 
L 255.346901 65.625501 
L 255.549937 64.932539 
L 255.752973 61.891508 
L 255.956009 65.803835 
L 256.159045 59.457573 
L 256.362081 57.273545 
L 256.565117 58.445652 
L 256.768153 57.661764 
L 256.971189 69.039333 
L 257.580297 61.658376 
L 257.783333 69.88395 
L 258.189405 67.148083 
L 258.595477 59.462443 
L 258.798513 59.781387 
L 259.001549 62.977305 
L 259.204585 63.765913 
L 259.407621 67.077785 
L 259.610657 63.110909 
L 259.813693 67.477239 
L 260.016729 60.830569 
L 260.219765 66.572436 
L 260.422801 64.82155 
L 260.625837 67.246351 
L 261.031909 55.728904 
L 261.234945 58.69414 
L 261.641017 67.79801 
L 261.844053 69.105408 
L 262.047089 59.685532 
L 262.250125 65.589843 
L 262.45316 57.799378 
L 262.656196 67.129657 
L 262.859232 65.579836 
L 263.062268 56.772521 
L 263.265304 69.534107 
L 263.46834 58.103072 
L 263.671376 67.181322 
L 263.874412 56.637361 
L 264.077448 64.295421 
L 264.280484 64.877692 
L 264.48352 60.958445 
L 264.686556 61.093176 
L 264.889592 66.858318 
L 265.092628 57.759008 
L 265.295664 64.402592 
L 265.4987 57.884762 
L 265.701736 68.82826 
L 265.904772 64.465052 
L 266.107808 68.905843 
L 266.310844 66.879789 
L 266.51388 56.697065 
L 266.716916 63.560193 
L 266.919952 58.785818 
L 267.122988 67.313193 
L 267.326024 66.109826 
L 267.52906 69.273895 
L 267.935132 62.82059 
L 268.138168 59.355272 
L 268.341204 62.858515 
L 268.54424 59.083543 
L 268.747276 60.569777 
L 268.950312 57.466918 
L 269.153348 60.603434 
L 269.356384 56.010173 
L 269.55942 64.609842 
L 269.762456 59.625453 
L 269.965492 69.393017 
L 270.168528 64.19721 
L 270.371564 63.954436 
L 270.5746 68.355521 
L 270.777636 61.8174 
L 270.980672 62.899505 
L 271.183708 57.355768 
L 271.386744 66.035288 
L 271.58978 69.607927 
L 271.792816 58.865736 
L 271.995852 65.145168 
L 272.198888 59.325372 
L 272.401924 58.024957 
L 272.807996 75.585585 
L 273.011032 55.863308 
L 273.214068 66.508045 
L 273.417104 57.831001 
L 273.823176 66.780235 
L 274.026212 55.757156 
L 274.229248 58.1972 
L 274.432284 64.214309 
L 274.63532 79.423241 
L 274.838356 54.076019 
L 275.244428 63.532613 
L 275.447464 59.939123 
L 275.6505 67.522718 
L 275.853536 62.427661 
L 276.056572 67.06311 
L 276.462644 58.871589 
L 276.868716 60.653355 
L 277.071752 66.248337 
L 277.274788 75.122867 
L 277.477824 58.389119 
L 277.68086 65.631857 
L 277.883896 56.800058 
L 278.086932 54.118655 
L 278.289968 60.626773 
L 278.493004 58.161345 
L 278.69604 66.226215 
L 278.899076 57.572861 
L 279.305148 54.669527 
L 279.508184 55.853715 
L 279.71122 58.287596 
L 279.914256 64.633922 
L 280.117291 60.455809 
L 280.320327 60.944728 
L 280.523363 59.238907 
L 280.726399 63.853115 
L 280.929435 65.252963 
L 281.132471 58.480062 
L 281.538543 72.088217 
L 281.741579 59.279904 
L 281.944615 60.449875 
L 282.147651 63.29516 
L 282.350687 62.237537 
L 282.553723 56.73296 
L 282.756759 54.386889 
L 282.959795 65.430973 
L 283.162831 69.799103 
L 283.365867 58.331758 
L 283.568903 57.401592 
L 283.771939 59.54021 
L 283.974975 66.256329 
L 284.178011 53.871899 
L 284.381047 58.605776 
L 284.584083 56.128881 
L 284.787119 61.964085 
L 284.990155 54.49488 
L 285.193191 58.488102 
L 285.396227 57.81712 
L 285.599263 59.300094 
L 285.802299 68.348348 
L 286.005335 57.09939 
L 286.208371 55.300184 
L 286.411407 60.430321 
L 286.817479 64.395159 
L 287.020515 64.331098 
L 287.223551 55.380148 
L 287.426587 57.630486 
L 287.629623 64.325521 
L 287.832659 55.164373 
L 288.035695 64.396571 
L 288.238731 62.284476 
L 288.441767 62.182466 
L 288.644803 65.945304 
L 288.847839 57.996156 
L 289.050875 55.742088 
L 289.456947 67.68881 
L 289.659983 59.30179 
L 289.863019 62.811278 
L 290.066055 56.76927 
L 290.269091 67.560519 
L 290.472127 68.110285 
L 290.675163 54.711355 
L 290.878199 54.341316 
L 291.081235 58.921439 
L 291.284271 57.72411 
L 291.487307 65.750232 
L 291.690343 59.858707 
L 291.893379 62.738281 
L 292.096415 54.01341 
L 292.299451 64.428594 
L 292.502487 56.857877 
L 292.705523 55.35389 
L 292.908559 68.403251 
L 293.111595 60.749906 
L 293.517667 65.533865 
L 293.720703 62.126096 
L 293.923739 75.338793 
L 294.126775 61.806049 
L 294.329811 60.366254 
L 294.532847 59.809699 
L 294.735883 61.785136 
L 294.938919 60.306674 
L 295.141955 61.417656 
L 295.344991 60.769948 
L 295.548027 56.358505 
L 295.751063 58.070713 
L 295.954099 57.057581 
L 296.157135 57.541818 
L 296.360171 63.032068 
L 296.563207 55.054135 
L 296.766243 64.552958 
L 296.969279 56.578735 
L 297.172315 55.319679 
L 297.375351 55.282222 
L 297.578386 66.562345 
L 297.781422 54.190982 
L 297.984458 67.272514 
L 298.187494 63.741372 
L 298.593566 68.126306 
L 298.796602 58.957695 
L 298.999638 66.353847 
L 299.202674 66.761647 
L 299.811782 57.279262 
L 300.217854 70.183756 
L 300.42089 55.653003 
L 300.623926 62.302575 
L 300.826962 61.927925 
L 301.029998 66.676957 
L 301.233034 54.105202 
L 301.43607 61.367061 
L 301.639106 56.906313 
L 301.842142 55.491246 
L 302.248214 63.832524 
L 302.45125 57.873692 
L 302.654286 72.296595 
L 303.263394 56.29723 
L 303.46643 58.661429 
L 303.669466 68.442866 
L 304.075538 57.916558 
L 304.278574 68.24173 
L 304.48161 64.066207 
L 304.684646 63.764106 
L 304.887682 65.442855 
L 305.090718 65.795031 
L 305.293754 68.003803 
L 305.49679 63.605471 
L 305.699826 53.952318 
L 305.902862 56.558953 
L 306.105898 68.383721 
L 306.308934 53.737249 
L 306.51197 54.362997 
L 306.715006 54.068068 
L 306.918042 65.457903 
L 307.324114 59.655015 
L 307.52715 59.802432 
L 307.730186 66.200488 
L 307.933222 66.825492 
L 308.136258 65.835411 
L 308.339294 59.976869 
L 308.54233 58.401185 
L 308.745366 66.026479 
L 308.948402 60.585282 
L 309.151438 58.352406 
L 309.354474 66.432557 
L 309.55751 64.791038 
L 309.760546 58.266153 
L 309.963582 61.029671 
L 310.369654 59.975865 
L 310.57269 58.305492 
L 310.775726 67.624031 
L 310.978762 63.8419 
L 311.181798 65.095848 
L 311.384834 54.907139 
L 311.790906 61.835663 
L 311.993942 59.800988 
L 312.196978 63.338811 
L 312.400014 54.257385 
L 312.60305 56.295405 
L 312.806086 65.246235 
L 313.009122 56.776262 
L 313.212158 65.111562 
L 313.415194 55.014772 
L 313.61823 55.26171 
L 313.821266 59.554506 
L 314.024302 67.847283 
L 314.227338 54.007327 
L 314.430374 67.065598 
L 314.63341 57.045366 
L 314.836446 66.236842 
L 315.039481 59.359876 
L 315.445553 68.21833 
L 315.648589 66.521028 
L 315.851625 61.943368 
L 316.054661 68.415919 
L 316.257697 55.379431 
L 316.460733 60.70781 
L 316.663769 54.300957 
L 317.069841 65.058163 
L 317.272877 62.57225 
L 317.475913 62.788439 
L 317.678949 62.317418 
L 317.881985 56.944303 
L 318.085021 62.574374 
L 318.288057 56.915541 
L 318.491093 61.447552 
L 318.694129 63.227048 
L 318.897165 55.210151 
L 319.100201 55.107361 
L 319.303237 60.901486 
L 319.506273 61.56629 
L 319.912345 53.910486 
L 320.115381 59.318568 
L 320.318417 56.812057 
L 320.521453 62.75328 
L 320.724489 56.188588 
L 320.927525 56.056617 
L 321.333597 63.289217 
L 321.536633 61.634677 
L 321.739669 62.734485 
L 321.942705 53.72699 
L 322.145741 62.710849 
L 322.348777 63.421193 
L 322.551813 54.299074 
L 322.754849 61.470313 
L 322.957885 56.325311 
L 323.160921 61.572031 
L 323.566993 58.207365 
L 323.770029 61.576969 
L 323.973065 54.031223 
L 324.176101 59.565996 
L 324.379137 55.25947 
L 324.582173 54.602984 
L 324.785209 56.351542 
L 324.988245 55.325622 
L 325.191281 66.026036 
L 325.394317 56.570357 
L 325.800389 62.986465 
L 326.003425 55.181421 
L 326.409497 58.619794 
L 326.612533 58.424193 
L 326.815569 55.633464 
L 327.018605 59.816158 
L 327.424677 56.172693 
L 327.627713 54.441166 
L 327.830749 55.467103 
L 328.033785 62.022416 
L 328.236821 58.732242 
L 328.439857 61.215194 
L 328.642893 59.36365 
L 328.845929 54.174566 
L 329.048965 54.841269 
L 329.455037 62.905621 
L 329.658073 56.930528 
L 329.861109 54.536393 
L 330.470217 60.781007 
L 330.876289 53.683864 
L 331.079325 56.102079 
L 331.485397 68.563409 
L 331.688433 55.782871 
L 331.891469 63.439506 
L 332.297541 53.661478 
L 332.500576 55.507844 
L 332.703612 62.664139 
L 332.906648 62.112165 
L 333.109684 63.103468 
L 333.31272 60.6626 
L 333.515756 56.389167 
L 333.718792 60.824597 
L 333.921828 56.511297 
L 334.124864 59.43775 
L 334.3279 58.42739 
L 334.530936 58.82611 
L 334.733972 62.618529 
L 334.937008 62.221035 
L 335.140044 55.377512 
L 335.546116 56.564265 
L 335.749152 56.726624 
L 336.155224 55.035017 
L 336.35826 60.637885 
L 336.561296 56.148621 
L 336.764332 56.765083 
L 336.967368 60.525125 
L 337.170404 55.597322 
L 337.37344 55.483172 
L 337.576476 62.64034 
L 337.779512 54.642557 
L 337.982548 59.172491 
L 338.185584 59.250128 
L 338.38862 60.4097 
L 338.591656 62.421755 
L 338.794692 58.004979 
L 338.997728 58.134489 
L 339.200764 54.053984 
L 339.4038 60.262294 
L 339.606836 56.52185 
L 339.809872 61.289389 
L 340.012908 60.306805 
L 340.215944 61.569068 
L 340.41898 55.86143 
L 340.622016 62.118384 
L 340.825052 59.040288 
L 341.231124 63.53673 
L 341.43416 62.729244 
L 341.637196 62.919201 
L 341.840232 60.679988 
L 342.043268 62.689288 
L 342.246304 63.084207 
L 342.44934 61.953267 
L 342.652376 61.992275 
L 342.855412 54.991476 
L 343.058448 56.933561 
L 343.261484 62.649552 
L 343.667556 54.066365 
L 343.870592 54.564272 
L 344.276664 61.273899 
L 344.682736 56.970654 
L 344.885772 55.767162 
L 345.088808 62.369952 
L 345.49488 60.574807 
L 345.697916 62.217599 
L 345.900952 54.530072 
L 346.103988 54.680652 
L 346.307024 62.042236 
L 346.51006 63.454367 
L 346.713096 53.591127 
L 346.916132 61.058395 
L 347.119168 61.200837 
L 347.322204 62.12622 
L 347.52524 55.570762 
L 347.728276 54.463076 
L 347.931312 54.120581 
L 348.134348 59.893135 
L 348.337384 56.717734 
L 348.743456 60.879082 
L 348.946492 53.674238 
L 349.149528 62.98498 
L 349.352564 58.100918 
L 349.5556 62.000436 
L 349.758636 59.83571 
L 349.961671 60.206884 
L 350.164707 58.324789 
L 350.367743 54.794233 
L 350.570779 61.906164 
L 350.773815 61.640982 
L 350.976851 70.134885 
L 351.179887 56.986045 
L 351.382923 59.342494 
L 351.585959 53.917729 
L 351.788995 54.684792 
L 351.992031 62.067877 
L 352.195067 62.756786 
L 352.398103 57.059593 
L 352.601139 63.05279 
L 352.804175 59.829798 
L 353.007211 54.494365 
L 353.413283 60.068952 
L 353.616319 62.709248 
L 353.819355 56.672979 
L 354.022391 60.673586 
L 354.225427 60.779186 
L 354.428463 63.553355 
L 354.631499 53.859422 
L 355.037571 62.353161 
L 355.240607 56.227156 
L 355.443643 55.574255 
L 355.646679 59.886178 
L 355.849715 59.918645 
L 356.052751 62.070517 
L 356.255787 60.827263 
L 356.458823 62.536536 
L 356.661859 55.384336 
L 356.864895 60.910264 
L 357.067931 59.526536 
L 357.270967 69.658912 
L 357.474003 60.726881 
L 357.677039 62.894138 
L 357.880075 57.123498 
L 358.083111 62.430922 
L 358.286147 62.227161 
L 358.489183 62.947815 
L 358.692219 56.14372 
L 358.895255 55.211959 
L 359.098291 55.195523 
L 359.301327 62.543378 
L 359.504363 55.428231 
L 359.707399 60.603577 
L 360.113471 59.247852 
L 360.316507 60.246223 
L 360.519543 63.5437 
L 360.722579 59.245606 
L 360.925615 61.850313 
L 361.128651 60.574472 
L 361.331687 55.932919 
L 361.737759 60.227938 
L 361.940795 54.426675 
L 362.143831 54.737374 
L 362.346867 61.608146 
L 362.549903 62.007148 
L 362.752939 57.456185 
L 362.955975 62.279508 
L 363.159011 63.002748 
L 363.362047 62.228698 
L 363.565083 54.69492 
L 363.768119 61.640415 
L 363.971155 60.541339 
L 364.174191 57.913462 
L 364.377227 57.707599 
L 364.580263 55.327104 
L 364.783299 55.524405 
L 364.986335 54.781995 
L 365.189371 54.977942 
L 365.392407 53.715429 
L 365.595443 70.686198 
L 365.798479 61.100093 
L 366.001515 59.983168 
L 366.204551 54.513156 
L 366.407587 53.921356 
L 366.610623 61.680977 
L 367.016695 53.740322 
L 367.219731 59.984418 
L 367.422767 57.447272 
L 367.625802 56.646321 
L 367.828838 55.226881 
L 368.031874 62.576638 
L 368.23491 56.720809 
L 368.437946 54.290316 
L 368.844018 60.33084 
L 369.25009 58.123771 
L 369.453126 54.790634 
L 369.656162 61.34102 
L 369.859198 55.158009 
L 370.062234 55.326803 
L 370.26527 57.737773 
L 370.468306 53.785965 
L 370.671342 60.250768 
L 370.874378 58.377587 
L 371.077414 58.262434 
L 371.28045 68.263182 
L 371.483486 58.096521 
L 371.686522 56.84838 
L 371.889558 60.05308 
L 372.092594 60.2883 
L 372.29563 60.14499 
L 372.498666 61.71847 
L 372.701702 54.364415 
L 372.904738 61.382594 
L 373.107774 54.362337 
L 373.513846 57.377203 
L 373.716882 59.614411 
L 373.919918 55.407549 
L 374.122954 60.976913 
L 374.32599 57.681864 
L 374.529026 62.401293 
L 374.732062 56.800581 
L 375.138134 54.610342 
L 375.34117 58.743221 
L 375.544206 60.517848 
L 375.747242 68.777556 
L 375.950278 57.581948 
L 376.153314 59.868425 
L 376.35635 60.245595 
L 376.559386 56.810232 
L 376.762422 56.766313 
L 376.965458 63.171678 
L 377.168494 63.239327 
L 377.37153 55.683587 
L 377.574566 54.982657 
L 377.980638 63.297747 
L 378.183674 60.577503 
L 378.38671 59.921315 
L 378.589746 56.562665 
L 379.198854 64.665144 
L 379.604926 56.314243 
L 379.807962 55.934059 
L 380.010998 58.313012 
L 380.214034 58.689417 
L 380.41707 55.915757 
L 380.620106 56.696214 
L 380.823142 60.617856 
L 381.026178 59.231459 
L 381.43225 60.520718 
L 381.635286 55.364355 
L 381.838322 54.600145 
L 382.041358 54.467559 
L 382.244394 59.253383 
L 382.44743 56.880815 
L 382.650466 56.611476 
L 382.853502 55.679357 
L 383.056538 60.71622 
L 383.46261 54.55563 
L 383.665646 61.089328 
L 383.868682 60.8336 
L 384.071718 54.687217 
L 384.274754 53.629761 
L 384.47779 53.746599 
L 384.680826 57.309595 
L 384.883862 53.965799 
L 385.086897 55.147328 
L 385.289933 57.26753 
L 385.492969 56.984848 
L 385.696005 57.129675 
L 385.899041 53.926987 
L 386.102077 58.074726 
L 386.508149 56.571931 
L 386.711185 54.268715 
L 386.914221 57.364862 
L 387.117257 55.658842 
L 387.320293 55.50386 
L 387.523329 60.649624 
L 388.132437 54.32046 
L 388.335473 60.447084 
L 388.538509 60.658562 
L 388.741545 55.085012 
L 388.944581 60.815408 
L 389.147617 55.198994 
L 389.350653 55.531697 
L 389.553689 62.742434 
L 389.756725 54.252474 
L 389.959761 60.126461 
L 390.162797 55.025537 
L 390.365833 58.329644 
L 390.568869 56.580619 
L 390.974941 59.412561 
L 391.177977 53.699453 
L 391.381013 59.634779 
L 391.584049 59.43099 
L 391.990121 57.417531 
L 392.193157 54.525714 
L 392.396193 53.568 
L 392.599229 54.931321 
L 392.802265 59.238143 
L 393.208337 57.883547 
L 393.411373 54.697408 
L 393.817445 59.226819 
L 394.020481 55.340443 
L 394.223517 54.784745 
L 394.426553 54.587771 
L 394.629589 60.227595 
L 394.832625 56.983227 
L 395.035661 56.415776 
L 395.238697 57.250915 
L 395.441733 59.7143 
L 395.644769 54.924392 
L 395.847805 59.585944 
L 396.050841 59.833315 
L 396.456913 55.896886 
L 396.659949 56.834447 
L 396.862985 65.094618 
L 397.066021 54.872772 
L 397.269057 55.465695 
L 397.472093 59.005721 
L 397.675129 54.145123 
L 397.878165 53.866103 
L 398.081201 57.569605 
L 398.487273 57.025927 
L 398.487273 57.025927 
" clip-path="url(#pb3ea57472b)" style="fill: none; stroke: #0000ff; stroke-width: 1.5; stroke-linecap: square"/>
   </g>
   <g id="line2d_18">
    <path d="M 73.832727 288.130025 
L 74.035763 286.351736 
L 74.238799 293.694858 
L 74.441835 281.019293 
L 74.644871 278.637433 
L 74.847907 287.038394 
L 75.050943 280.1469 
L 75.457015 287.337782 
L 75.660051 281.580132 
L 75.863087 291.267509 
L 76.066123 270.205538 
L 76.269159 264.075265 
L 76.675231 282.133248 
L 76.878267 263.789892 
L 77.081303 272.045894 
L 77.284339 264.930946 
L 77.487375 264.000158 
L 77.690411 263.77205 
L 77.893447 268.206016 
L 78.096483 255.745473 
L 78.299519 258.218674 
L 78.502555 250.067787 
L 78.908627 254.698899 
L 79.111663 267.878128 
L 79.314699 256.615338 
L 79.517735 259.631234 
L 79.720771 255.925707 
L 79.923807 258.648616 
L 80.329879 249.313412 
L 80.532915 249.082425 
L 80.938987 261.411408 
L 81.142023 241.994452 
L 81.345059 258.316636 
L 81.548095 242.881978 
L 81.751131 238.15643 
L 81.954167 250.50585 
L 82.157203 239.008579 
L 82.360239 238.372608 
L 82.563275 258.500192 
L 82.766311 254.808106 
L 82.969347 241.78161 
L 83.172383 215.102289 
L 83.375419 256.07046 
L 83.578455 237.126689 
L 83.781491 256.455369 
L 84.390599 244.584324 
L 84.593635 250.146254 
L 84.796671 227.851144 
L 84.999707 242.705333 
L 85.202743 245.492282 
L 85.405779 254.354563 
L 85.608815 238.907845 
L 85.811851 249.113569 
L 86.014887 232.935174 
L 86.217923 247.178723 
L 86.420959 246.680693 
L 86.623995 244.447975 
L 86.827031 198.211535 
L 87.030067 192.421425 
L 87.233103 246.039149 
L 87.436138 246.670148 
L 87.639174 236.287094 
L 87.84221 242.77634 
L 88.045246 224.420274 
L 88.248282 230.162446 
L 88.654354 221.214932 
L 88.85739 255.307119 
L 89.263462 227.998981 
L 89.466498 222.366627 
L 89.669534 240.647676 
L 89.87257 238.584819 
L 90.075606 217.407931 
L 90.278642 215.961776 
L 90.684714 231.484078 
L 90.88775 218.043393 
L 91.090786 227.912046 
L 91.293822 217.334273 
L 91.496858 238.574047 
L 91.699894 237.474737 
L 91.90293 216.657512 
L 92.105966 230.558468 
L 92.309002 212.006849 
L 92.512038 223.454333 
L 92.715074 211.65785 
L 92.91811 213.953615 
L 93.121146 233.799359 
L 93.324182 226.030855 
L 93.527218 223.33018 
L 93.730254 233.647936 
L 94.136326 221.946986 
L 94.339362 223.271838 
L 94.542398 222.263868 
L 94.94847 226.481036 
L 95.151506 213.767989 
L 95.354542 224.100237 
L 95.557578 210.266278 
L 95.760614 224.77563 
L 95.96365 210.940538 
L 96.166686 227.268849 
L 96.369722 207.794771 
L 96.572758 224.527522 
L 96.775794 210.337603 
L 96.97883 219.216555 
L 97.181866 209.603641 
L 97.384902 205.994866 
L 97.587938 224.179407 
L 97.790974 217.516687 
L 97.99401 221.016247 
L 98.197046 172.271447 
L 98.603118 216.55177 
L 98.806154 206.422092 
L 99.00919 220.533825 
L 99.212226 222.729313 
L 99.415262 237.903356 
L 99.618298 222.332528 
L 99.821334 217.497154 
L 100.02437 230.766509 
L 100.227406 206.466421 
L 100.430442 213.197769 
L 100.836514 197.539111 
L 101.03955 236.43702 
L 101.445622 195.592563 
L 101.648658 221.591408 
L 101.851694 220.025803 
L 102.257766 203.88647 
L 102.460802 205.010595 
L 102.663838 202.04402 
L 102.866874 219.60572 
L 103.06991 196.161437 
L 103.475982 217.607727 
L 103.882054 199.461301 
L 104.08509 217.885195 
L 104.288126 206.45175 
L 104.491162 210.755298 
L 104.694198 206.432749 
L 104.897233 210.04882 
L 105.100269 206.664065 
L 105.303305 196.162093 
L 105.506341 200.471752 
L 105.709377 190.441859 
L 105.912413 205.857658 
L 106.115449 190.510129 
L 106.318485 205.267974 
L 106.521521 198.532465 
L 106.724557 210.786264 
L 106.927593 196.302954 
L 107.130629 207.56482 
L 107.333665 187.663159 
L 107.536701 207.273725 
L 107.739737 205.881038 
L 107.942773 198.579019 
L 108.145809 173.951563 
L 108.551881 204.418384 
L 108.754917 207.920557 
L 108.957953 201.355225 
L 109.160989 186.580155 
L 109.364025 198.933727 
L 109.567061 192.160243 
L 109.770097 201.9367 
L 109.973133 186.132579 
L 110.176169 202.142668 
L 110.379205 183.22315 
L 110.582241 188.745356 
L 110.785277 189.378074 
L 110.988313 200.816324 
L 111.191349 201.500883 
L 111.394385 188.560848 
L 111.597421 191.039643 
L 111.800457 184.92494 
L 112.003493 191.783008 
L 112.206529 206.710509 
L 112.409565 177.897272 
L 112.612601 190.298986 
L 113.018673 196.964644 
L 113.221709 196.702931 
L 113.424745 197.842319 
L 113.830817 183.698929 
L 114.033853 222.308594 
L 114.236889 180.236981 
L 114.439925 181.058489 
L 114.642961 196.818994 
L 114.845997 203.202384 
L 115.049033 200.783943 
L 115.455105 187.275761 
L 115.658141 182.554994 
L 115.861177 198.723519 
L 116.064213 196.677435 
L 116.267249 177.824652 
L 116.470285 189.024063 
L 116.673321 189.66706 
L 117.079393 195.609874 
L 117.282429 196.06086 
L 117.485465 181.961739 
L 117.688501 189.361061 
L 117.891537 186.285866 
L 118.094573 179.076854 
L 118.297609 195.67127 
L 118.500645 186.504723 
L 118.703681 185.485917 
L 118.906717 186.253578 
L 119.109753 178.088064 
L 119.312789 180.764276 
L 119.515825 190.122017 
L 119.718861 192.803049 
L 120.124933 174.4361 
L 120.327969 182.936435 
L 120.531005 185.14347 
L 120.734041 191.769438 
L 120.937077 175.930632 
L 121.140113 178.858429 
L 121.343149 196.172629 
L 121.546185 176.714126 
L 121.749221 190.508178 
L 121.952257 191.323427 
L 122.155293 170.427923 
L 122.358329 169.3891 
L 122.561364 172.265684 
L 122.7644 189.691324 
L 123.170472 182.939834 
L 123.373508 183.61286 
L 123.576544 188.901744 
L 123.77958 178.864381 
L 123.982616 185.414732 
L 124.185652 167.029368 
L 124.388688 172.094449 
L 124.591724 182.48253 
L 124.79476 171.428591 
L 124.997796 180.281882 
L 125.200832 176.815365 
L 125.403868 170.763968 
L 125.606904 144.601204 
L 125.80994 183.492053 
L 126.012976 174.863949 
L 126.216012 188.846228 
L 126.419048 179.19424 
L 126.622084 175.765459 
L 126.82512 168.227355 
L 127.028156 165.747593 
L 127.231192 181.689363 
L 127.434228 183.221304 
L 127.637264 165.967444 
L 127.8403 165.641125 
L 128.043336 164.903894 
L 128.246372 185.459852 
L 128.449408 171.541631 
L 128.652444 183.052855 
L 128.85548 168.263913 
L 129.058516 165.105291 
L 129.261552 182.717355 
L 129.464588 185.30233 
L 129.87066 169.863551 
L 130.073696 175.455415 
L 130.276732 172.064287 
L 130.479768 178.757152 
L 130.682804 177.558086 
L 130.88584 183.101706 
L 131.088876 162.518444 
L 131.291912 163.507457 
L 131.494948 166.240551 
L 131.697984 173.255982 
L 131.90102 174.51025 
L 132.104056 178.676521 
L 132.307092 162.768904 
L 132.510128 162.514125 
L 132.713164 181.035583 
L 132.9162 177.443835 
L 133.119236 168.017143 
L 133.322272 172.357812 
L 133.525308 172.820558 
L 133.728344 157.603014 
L 133.93138 181.015782 
L 134.134416 162.176142 
L 134.337452 164.196922 
L 134.540488 182.495913 
L 134.743524 163.031729 
L 134.94656 159.276472 
L 135.149596 176.29148 
L 135.352632 169.81018 
L 135.555668 156.904117 
L 135.758704 166.855023 
L 135.96174 156.881625 
L 136.164776 172.49772 
L 136.367812 155.804758 
L 136.570848 157.125001 
L 136.97692 180.040198 
L 137.179956 161.905961 
L 137.382992 177.910945 
L 137.586028 161.4693 
L 137.789064 162.139345 
L 137.9921 138.48371 
L 138.398172 176.631665 
L 138.601208 172.135858 
L 138.804244 173.090852 
L 139.00728 169.480173 
L 139.210316 160.972852 
L 139.413352 167.579226 
L 139.616388 157.482918 
L 139.819424 177.629645 
L 140.022459 157.766557 
L 140.225495 153.350477 
L 140.428531 152.904913 
L 140.631567 165.452034 
L 140.834603 151.144564 
L 141.037639 166.89691 
L 141.240675 161.448374 
L 141.443711 167.695478 
L 141.646747 170.361826 
L 141.849783 149.952391 
L 142.052819 164.091764 
L 142.458891 175.262084 
L 142.661927 160.242479 
L 142.864963 159.067777 
L 143.067999 163.74539 
L 143.271035 172.854469 
L 143.474071 165.51509 
L 143.677107 152.270683 
L 143.880143 156.97415 
L 144.083179 148.646506 
L 144.286215 148.268329 
L 144.489251 150.224862 
L 144.692287 163.487761 
L 144.895323 167.511194 
L 145.098359 146.734002 
L 145.301395 171.118155 
L 145.504431 134.311943 
L 145.707467 148.939266 
L 145.910503 148.45855 
L 146.113539 171.888108 
L 146.316575 149.956562 
L 146.519611 167.205542 
L 146.722647 168.270342 
L 146.925683 163.234002 
L 147.128719 146.289406 
L 147.331755 149.037031 
L 147.534791 169.53898 
L 147.737827 151.878049 
L 147.940863 144.790271 
L 148.143899 159.995418 
L 148.549971 149.388535 
L 148.956043 143.358767 
L 149.159079 145.727374 
L 149.565151 165.256655 
L 149.768187 168.702314 
L 149.971223 168.621068 
L 150.174259 167.284309 
L 150.783367 143.204585 
L 150.986403 163.069459 
L 151.392475 145.443704 
L 151.595511 153.738639 
L 151.798547 149.356596 
L 152.001583 158.555036 
L 152.204619 145.047105 
L 152.610691 152.266411 
L 152.813727 151.360779 
L 153.016763 178.912496 
L 153.219799 156.278679 
L 153.422835 150.930459 
L 153.625871 150.746994 
L 153.828907 159.534549 
L 154.031943 151.214594 
L 154.234979 150.684936 
L 154.438015 158.726532 
L 154.844087 144.39173 
L 155.250159 161.402034 
L 155.453195 159.582913 
L 155.656231 151.482389 
L 155.859267 163.077719 
L 156.062303 137.47336 
L 156.265339 137.401927 
L 156.468375 146.277982 
L 156.671411 160.773064 
L 156.874447 160.246277 
L 157.077483 145.198662 
L 157.280519 145.357129 
L 157.483554 157.882598 
L 157.68659 154.003325 
L 158.092662 138.093175 
L 158.295698 147.596397 
L 158.498734 146.704161 
L 158.70177 155.340865 
L 158.904806 147.134333 
L 159.310878 154.403857 
L 159.513914 136.952367 
L 159.919986 156.554106 
L 160.326058 145.556305 
L 160.73213 152.762504 
L 160.935166 136.146113 
L 161.138202 146.504212 
L 161.341238 137.588678 
L 161.544274 143.341567 
L 161.74731 142.816252 
L 161.950346 144.948876 
L 162.153382 165.410188 
L 162.356418 148.278484 
L 162.559454 141.925985 
L 162.76249 139.37515 
L 162.965526 155.837097 
L 163.168562 150.854125 
L 163.371598 140.610532 
L 163.574634 136.90477 
L 163.77767 150.570414 
L 163.980706 148.360584 
L 164.183742 155.328891 
L 164.386778 136.391494 
L 164.589814 153.130086 
L 164.79285 154.113341 
L 164.995886 135.379595 
L 165.198922 134.136032 
L 165.401958 155.737658 
L 165.604994 153.963566 
L 165.80803 150.653172 
L 166.011066 144.156758 
L 166.214102 151.942746 
L 166.417138 137.291776 
L 166.620174 146.353848 
L 166.82321 137.829387 
L 167.229282 151.787592 
L 167.432318 130.988211 
L 167.635354 137.782405 
L 167.83839 148.3833 
L 168.041426 145.362686 
L 168.244462 136.398909 
L 168.447498 136.829218 
L 168.650534 129.614123 
L 168.85357 138.167986 
L 169.056606 137.72657 
L 169.259642 164.519151 
L 169.462678 127.104671 
L 169.665714 127.290105 
L 169.86875 137.870491 
L 170.071786 126.74317 
L 170.274822 148.295935 
L 170.477858 135.99469 
L 170.680894 138.836843 
L 170.88393 138.716424 
L 171.086966 135.546524 
L 171.493038 147.830482 
L 171.696074 130.276113 
L 171.89911 138.335894 
L 172.102146 140.461082 
L 172.305182 148.920649 
L 172.508218 137.141721 
L 172.711254 137.556945 
L 172.91429 135.599661 
L 173.117326 125.756765 
L 173.320362 143.03737 
L 173.523398 145.285623 
L 173.726434 140.988399 
L 173.92947 121.368878 
L 174.132506 128.393223 
L 174.335542 125.39334 
L 174.538578 139.370669 
L 174.741614 145.076668 
L 174.944649 143.740677 
L 175.147685 122.928211 
L 175.350721 143.543142 
L 175.553757 146.173591 
L 175.756793 135.467435 
L 175.959829 146.745022 
L 176.162865 138.616673 
L 176.365901 160.771414 
L 176.568937 135.475289 
L 176.771973 136.161182 
L 176.975009 127.1074 
L 177.178045 142.688135 
L 177.381081 147.268823 
L 177.584117 146.591624 
L 177.787153 137.600068 
L 177.990189 141.757407 
L 178.193225 142.816792 
L 178.396261 129.889508 
L 178.599297 130.431973 
L 178.802333 139.450222 
L 179.005369 120.755609 
L 179.208405 120.754549 
L 179.411441 144.564033 
L 179.614477 137.27892 
L 179.817513 125.07576 
L 180.020549 130.024942 
L 180.223585 126.602426 
L 180.426621 134.800864 
L 180.629657 126.84301 
L 180.832693 133.481857 
L 181.238765 124.971456 
L 181.644837 143.484575 
L 181.847873 124.826874 
L 182.050909 139.880228 
L 182.253945 133.302893 
L 182.456981 152.483374 
L 182.660017 131.170154 
L 182.863053 130.532331 
L 183.066089 118.533687 
L 183.269125 136.611967 
L 183.472161 137.733725 
L 183.675197 134.503314 
L 183.878233 118.208701 
L 184.081269 120.208596 
L 184.284305 136.063613 
L 184.487341 122.606448 
L 184.690377 117.735092 
L 184.893413 125.009722 
L 185.096449 141.230122 
L 185.299485 120.949714 
L 185.502521 139.758081 
L 185.705557 137.166784 
L 185.908593 117.82583 
L 186.111629 137.219526 
L 186.314665 136.069182 
L 186.517701 136.959269 
L 186.720737 117.616543 
L 186.923773 118.517707 
L 187.126809 136.378411 
L 187.329845 115.525514 
L 187.532881 120.144697 
L 187.735917 128.962502 
L 187.938953 128.682291 
L 188.141989 133.855977 
L 188.345025 124.507898 
L 188.548061 130.957866 
L 188.954133 120.244819 
L 189.157169 136.375843 
L 189.563241 116.74814 
L 189.766277 133.03045 
L 189.969313 136.453369 
L 190.172349 124.888627 
L 190.375385 122.399139 
L 190.578421 135.283902 
L 190.781457 130.344176 
L 190.984493 112.8668 
L 191.187529 135.305061 
L 191.390565 135.906062 
L 191.593601 115.692447 
L 191.796637 116.046209 
L 191.999673 111.369822 
L 192.202709 112.539728 
L 192.405744 128.832399 
L 192.60878 90.5942 
L 192.811816 110.757439 
L 193.014852 116.601293 
L 193.217888 113.885668 
L 193.420924 119.984706 
L 193.826996 116.935013 
L 194.030032 125.378403 
L 194.233068 111.245106 
L 194.436104 135.39258 
L 194.63914 110.474763 
L 194.842176 115.78081 
L 195.045212 133.928353 
L 195.248248 112.708294 
L 195.451284 134.136567 
L 195.65432 115.760849 
L 195.857356 115.238766 
L 196.060392 129.232685 
L 196.263428 130.132136 
L 196.466464 111.497672 
L 196.872536 131.621621 
L 197.075572 120.814081 
L 197.278608 117.599741 
L 197.481644 109.076435 
L 197.887716 122.308393 
L 198.090752 112.249983 
L 198.293788 125.134596 
L 198.496824 116.749786 
L 198.69986 117.989074 
L 198.902896 106.642796 
L 199.105932 118.05393 
L 199.308968 108.47672 
L 199.512004 113.772162 
L 199.71504 110.151286 
L 199.918076 108.849692 
L 200.121112 127.834097 
L 200.324148 131.044072 
L 200.527184 106.404634 
L 200.73022 109.585985 
L 200.933256 125.31462 
L 201.136292 110.453627 
L 201.339328 130.514656 
L 201.542364 111.448669 
L 201.7454 107.789555 
L 201.948436 108.964572 
L 202.151472 130.812424 
L 202.557544 113.864914 
L 202.76058 114.838946 
L 202.963616 105.766799 
L 203.166652 127.533175 
L 203.369688 118.289884 
L 203.77576 122.086713 
L 203.978796 127.950754 
L 204.181832 93.150506 
L 204.587904 120.928935 
L 204.79094 116.32871 
L 204.993976 108.46843 
L 205.197012 120.414817 
L 205.400048 112.001579 
L 205.603084 122.744699 
L 205.80612 127.53636 
L 206.009156 121.258653 
L 206.212192 120.385974 
L 206.415228 102.964158 
L 206.618264 102.287158 
L 206.8213 123.35534 
L 207.024336 123.702773 
L 207.227372 115.645441 
L 207.430408 118.552404 
L 207.633444 95.654877 
L 207.83648 119.825183 
L 208.039516 117.31664 
L 208.242552 121.40568 
L 208.445588 120.910049 
L 208.648624 123.289427 
L 209.054696 104.285148 
L 209.257732 90.89555 
L 209.460768 106.331355 
L 209.663804 102.725555 
L 209.86684 116.929494 
L 210.069875 112.361312 
L 210.272911 117.518739 
L 210.475947 118.597574 
L 210.678983 117.72775 
L 210.882019 102.099654 
L 211.491127 114.113524 
L 211.897199 100.325672 
L 212.100235 111.79665 
L 212.303271 98.815951 
L 212.506307 110.697884 
L 212.912379 120.676979 
L 213.115415 120.905775 
L 213.318451 116.589784 
L 213.521487 114.649316 
L 213.724523 107.268353 
L 213.927559 119.426721 
L 214.333631 113.306273 
L 214.536667 112.958837 
L 214.739703 111.397121 
L 214.942739 112.785988 
L 215.145775 118.934424 
L 215.348811 102.159011 
L 215.551847 120.028367 
L 215.754883 104.762175 
L 215.957919 111.858711 
L 216.160955 111.367018 
L 216.363991 102.097555 
L 216.567027 113.550823 
L 216.770063 98.182603 
L 216.973099 119.705272 
L 217.176135 97.24605 
L 217.582207 115.187365 
L 217.785243 114.635929 
L 217.988279 101.234697 
L 218.191315 105.545537 
L 218.394351 99.054926 
L 218.597387 117.345123 
L 218.800423 115.39629 
L 219.003459 98.958371 
L 219.206495 103.922034 
L 219.409531 104.614802 
L 219.612567 104.206336 
L 219.815603 115.092452 
L 220.018639 99.849897 
L 220.830783 114.81337 
L 221.033819 100.541259 
L 221.236855 109.954992 
L 221.439891 105.82962 
L 221.642927 118.671822 
L 221.845963 93.946871 
L 222.048999 94.045447 
L 222.252035 118.395318 
L 222.455071 82.897067 
L 222.658107 97.707287 
L 222.861143 92.888459 
L 223.064179 105.286623 
L 223.267215 106.895187 
L 223.470251 100.01434 
L 223.673287 117.477174 
L 223.876323 92.350136 
L 224.079359 98.879665 
L 224.282395 95.851707 
L 224.485431 110.519032 
L 224.688467 95.818429 
L 224.891503 100.035443 
L 225.094539 115.392051 
L 225.297575 109.506315 
L 225.500611 109.240721 
L 225.906683 98.685938 
L 226.109719 111.975049 
L 226.312755 110.480224 
L 226.718827 102.58178 
L 226.921863 102.742935 
L 227.124899 92.617424 
L 227.327935 109.059448 
L 227.53097 106.237571 
L 227.734006 91.234845 
L 227.937042 110.781569 
L 228.140078 94.967082 
L 228.343114 115.127767 
L 228.54615 112.989014 
L 228.749186 92.322307 
L 228.952222 109.614359 
L 229.155258 90.260744 
L 229.358294 91.571161 
L 229.56133 109.324961 
L 229.764366 97.778665 
L 229.967402 94.437824 
L 230.170438 107.141223 
L 230.373474 94.752381 
L 230.57651 108.929063 
L 230.779546 92.408853 
L 230.982582 107.379853 
L 231.185618 101.299063 
L 231.388654 111.030243 
L 231.59169 110.579208 
L 231.794726 101.986014 
L 231.997762 87.244614 
L 232.200798 89.205119 
L 232.403834 101.506022 
L 232.60687 95.910357 
L 232.809906 110.49066 
L 233.012942 103.51379 
L 233.215978 100.928271 
L 233.419014 110.172578 
L 233.62205 104.348349 
L 233.825086 92.045715 
L 234.028122 94.80678 
L 234.434194 110.950903 
L 234.63723 97.068782 
L 234.840266 110.261032 
L 235.043302 88.109516 
L 235.246338 88.394339 
L 235.449374 88.076026 
L 235.65241 106.162286 
L 235.855446 88.004592 
L 236.058482 89.924289 
L 236.261518 89.291322 
L 236.464554 108.213592 
L 236.66759 106.986061 
L 236.870626 96.231963 
L 237.073662 105.391248 
L 237.276698 94.577055 
L 237.479734 95.065686 
L 237.68277 97.976274 
L 237.885806 95.911851 
L 238.088842 91.615327 
L 238.291878 90.563764 
L 238.494914 108.252314 
L 238.69795 83.549843 
L 238.900986 95.067123 
L 239.104022 86.056874 
L 239.307058 86.860346 
L 239.510094 105.396092 
L 239.71313 94.186461 
L 239.916166 96.044932 
L 240.322238 100.799079 
L 240.525274 85.129617 
L 240.72831 98.505561 
L 240.931346 87.83237 
L 241.134382 86.392512 
L 241.337418 102.406059 
L 241.540454 101.652386 
L 241.74349 88.682895 
L 241.946526 89.489873 
L 242.149562 102.054252 
L 242.352598 84.309087 
L 242.555634 98.842906 
L 242.75867 80.891612 
L 242.961706 84.073476 
L 243.164742 100.20489 
L 243.367778 92.396589 
L 243.570814 98.100997 
L 243.77385 91.234806 
L 244.179922 96.412396 
L 244.382958 94.133874 
L 244.585994 89.879548 
L 244.78903 97.873852 
L 244.992065 100.317552 
L 245.195101 99.031713 
L 245.398137 86.954617 
L 245.601173 100.611988 
L 246.007245 85.509549 
L 246.210281 98.697261 
L 246.413317 101.202455 
L 246.616353 87.669628 
L 246.819389 100.597525 
L 247.022425 82.542396 
L 247.225461 86.85843 
L 247.428497 87.45254 
L 247.631533 98.8087 
L 247.834569 86.157661 
L 248.037605 102.909581 
L 248.240641 82.967062 
L 248.443677 92.053054 
L 248.646713 92.343453 
L 248.849749 85.593117 
L 249.052785 88.740365 
L 249.255821 102.509726 
L 249.661893 78.734789 
L 249.864929 93.313421 
L 250.067965 92.654689 
L 250.271001 90.63177 
L 250.474037 93.204354 
L 250.677073 102.903916 
L 250.880109 95.471481 
L 251.083145 99.995175 
L 251.286181 99.894018 
L 251.489217 93.268353 
L 251.692253 78.605512 
L 251.895289 101.52069 
L 252.098325 100.886746 
L 252.301361 95.467437 
L 252.504397 100.379164 
L 252.707433 80.491039 
L 252.910469 81.21512 
L 253.113505 84.107078 
L 253.316541 96.042778 
L 253.519577 96.546949 
L 253.722613 89.755249 
L 253.925649 96.675612 
L 254.128685 93.657852 
L 254.331721 100.492051 
L 254.534757 84.953214 
L 254.737793 92.538606 
L 254.940829 79.624624 
L 255.143865 112.728511 
L 255.346901 75.441967 
L 255.549937 83.20267 
L 255.752973 80.207452 
L 255.956009 94.931613 
L 256.362081 75.019928 
L 256.565117 74.648601 
L 256.768153 97.164594 
L 256.971189 98.765789 
L 257.174225 75.261251 
L 257.580297 81.304393 
L 257.783333 97.52706 
L 258.189405 80.968335 
L 258.392441 90.626762 
L 258.595477 76.060098 
L 259.001549 93.066141 
L 259.204585 83.353973 
L 259.407621 87.752243 
L 259.610657 94.961826 
L 259.813693 95.96609 
L 260.219765 78.873568 
L 260.625837 96.039064 
L 260.828873 80.173249 
L 261.031909 88.198547 
L 261.234945 83.526118 
L 261.437981 73.88161 
L 261.641017 90.355651 
L 261.844053 87.290318 
L 262.047089 89.669476 
L 262.250125 73.262415 
L 262.45316 93.547117 
L 262.656196 75.387111 
L 262.859232 94.981936 
L 263.062268 81.807189 
L 263.265304 80.973104 
L 263.46834 92.411983 
L 263.671376 87.986695 
L 263.874412 93.62621 
L 264.077448 74.628168 
L 264.280484 87.754598 
L 264.48352 79.370389 
L 264.686556 94.706114 
L 264.889592 80.694221 
L 265.092628 87.786035 
L 265.4987 72.14497 
L 265.701736 84.739089 
L 265.904772 84.233784 
L 266.107808 89.0371 
L 266.310844 69.395357 
L 266.51388 77.568981 
L 266.716916 74.339493 
L 266.919952 91.885753 
L 267.122988 88.586117 
L 267.326024 74.134288 
L 267.732096 87.948734 
L 268.138168 79.279053 
L 268.341204 80.233938 
L 268.54424 93.319406 
L 268.747276 69.758219 
L 268.950312 78.226388 
L 269.153348 79.044166 
L 269.55942 69.578895 
L 269.762456 90.980447 
L 269.965492 79.548093 
L 270.168528 79.320619 
L 270.371564 77.611768 
L 270.5746 87.562957 
L 270.777636 72.443783 
L 270.980672 91.517182 
L 271.183708 70.639384 
L 271.386744 76.911543 
L 271.58978 77.580453 
L 271.792816 86.429167 
L 271.995852 76.367818 
L 272.198888 78.765324 
L 272.60496 86.96815 
L 272.807996 71.198923 
L 273.011032 72.459125 
L 273.214068 67.896702 
L 273.62014 73.079034 
L 273.823176 87.50749 
L 274.026212 77.442392 
L 274.229248 87.698384 
L 274.432284 68.44337 
L 274.63532 81.047176 
L 274.838356 67.968353 
L 275.041392 71.703211 
L 275.244428 82.529841 
L 275.447464 70.439848 
L 275.6505 65.478702 
L 275.853536 68.454085 
L 276.056572 79.689417 
L 276.259608 76.962737 
L 276.462644 65.131987 
L 276.66568 76.237342 
L 276.868716 70.280412 
L 277.071752 70.19427 
L 277.274788 78.832011 
L 277.477824 67.542659 
L 277.883896 82.938346 
L 278.086932 75.724338 
L 278.289968 82.909497 
L 278.493004 78.841245 
L 278.69604 70.286039 
L 279.305148 78.478243 
L 279.508184 83.995616 
L 279.71122 92.682496 
L 279.914256 73.305205 
L 280.117291 81.235198 
L 280.320327 68.633676 
L 280.523363 75.05445 
L 280.726399 71.496625 
L 281.132471 81.200842 
L 281.335507 68.881629 
L 281.538543 76.936331 
L 281.741579 79.229071 
L 281.944615 66.88948 
L 282.147651 84.687038 
L 282.350687 79.190169 
L 282.553723 84.548104 
L 283.162831 76.481163 
L 283.365867 85.950548 
L 283.568903 77.561051 
L 283.771939 76.789292 
L 283.974975 77.485685 
L 284.178011 79.180887 
L 284.381047 82.769203 
L 284.584083 67.743426 
L 284.990155 77.827711 
L 285.193191 91.485676 
L 285.396227 77.514674 
L 285.599263 80.299317 
L 285.802299 85.939521 
L 286.005335 77.380536 
L 286.208371 80.017551 
L 286.411407 72.346582 
L 286.817479 75.975102 
L 287.020515 75.248443 
L 287.223551 79.357785 
L 287.426587 68.956867 
L 287.629623 72.066461 
L 287.832659 70.019327 
L 288.035695 84.464242 
L 288.238731 67.823462 
L 288.441767 71.431951 
L 288.644803 72.101099 
L 288.847839 72.06773 
L 289.050875 81.725907 
L 289.253911 74.02328 
L 289.456947 82.414529 
L 289.659983 75.25892 
L 289.863019 82.440191 
L 290.066055 76.29202 
L 290.269091 84.501887 
L 290.472127 85.286218 
L 290.675163 69.139984 
L 290.878199 70.923129 
L 291.081235 85.681464 
L 291.284271 76.047832 
L 291.690343 74.636281 
L 291.893379 75.182958 
L 292.096415 83.397298 
L 292.299451 75.698277 
L 292.705523 71.721156 
L 292.908559 73.695248 
L 293.111595 80.693489 
L 293.314631 70.475263 
L 293.517667 75.442106 
L 293.720703 72.142316 
L 293.923739 74.125322 
L 294.126775 70.560711 
L 294.329811 73.340541 
L 294.532847 72.692728 
L 294.938919 84.91122 
L 295.141955 79.550205 
L 295.344991 71.131164 
L 295.548027 71.943686 
L 295.751063 74.621917 
L 295.954099 84.209317 
L 296.157135 79.276687 
L 296.360171 80.866458 
L 296.563207 69.001326 
L 296.766243 70.373239 
L 296.969279 78.19514 
L 297.172315 68.970918 
L 297.375351 77.222588 
L 297.578386 69.359275 
L 297.781422 68.305272 
L 297.984458 84.640194 
L 298.187494 75.17554 
L 298.39053 74.451468 
L 298.593566 75.225986 
L 298.796602 73.695078 
L 298.999638 80.601632 
L 299.40571 71.477822 
L 299.608746 85.058871 
L 299.811782 77.624025 
L 300.014818 77.550952 
L 300.217854 67.954998 
L 300.42089 82.037085 
L 300.623926 83.451261 
L 301.029998 72.122175 
L 301.233034 70.035213 
L 301.43607 78.949345 
L 301.842142 83.079569 
L 302.045178 69.613723 
L 302.248214 72.7351 
L 302.45125 69.010991 
L 302.654286 82.866748 
L 303.060358 70.751549 
L 303.263394 69.648524 
L 303.46643 78.473952 
L 303.669466 74.278451 
L 303.872502 85.974406 
L 304.075538 74.40411 
L 304.278574 81.066905 
L 304.48161 72.327477 
L 304.684646 69.489227 
L 304.887682 84.981781 
L 305.090718 71.15162 
L 305.293754 82.961477 
L 305.49679 74.451467 
L 305.699826 76.889204 
L 305.902862 67.797616 
L 306.105898 81.933685 
L 306.308934 82.999564 
L 306.51197 68.195313 
L 306.715006 82.436991 
L 306.918042 70.533171 
L 307.121078 74.658818 
L 307.324114 74.101662 
L 307.52715 69.13679 
L 307.933222 85.996106 
L 308.339294 72.039961 
L 308.54233 72.076854 
L 308.745366 77.499007 
L 308.948402 71.263891 
L 309.151438 83.319956 
L 309.354474 79.358239 
L 309.55751 69.448266 
L 309.760546 71.953241 
L 310.166618 84.191144 
L 310.369654 81.286342 
L 310.57269 70.419432 
L 310.775726 76.60924 
L 310.978762 70.892339 
L 311.181798 72.648441 
L 311.384834 85.894246 
L 311.58787 87.228741 
L 311.790906 78.72975 
L 311.993942 80.66109 
L 312.196978 77.243408 
L 312.400014 70.53404 
L 312.60305 68.71478 
L 312.806086 75.564326 
L 313.009122 71.634558 
L 313.212158 82.603513 
L 313.415194 69.472414 
L 313.61823 69.753638 
L 313.821266 84.51555 
L 314.024302 71.325172 
L 314.227338 79.651614 
L 314.430374 77.90046 
L 314.63341 68.878307 
L 314.836446 75.029927 
L 315.039481 67.849336 
L 315.242517 67.885888 
L 315.445553 85.510889 
L 315.648589 85.785464 
L 315.851625 77.942872 
L 316.054661 84.027202 
L 316.257697 69.421688 
L 316.460733 81.919321 
L 316.663769 86.215949 
L 316.866805 68.542308 
L 317.069841 80.479058 
L 317.272877 80.532565 
L 317.475913 70.9338 
L 317.678949 79.210156 
L 317.881985 70.468983 
L 318.491093 85.249238 
L 318.694129 76.01368 
L 318.897165 79.664882 
L 319.100201 69.263944 
L 319.303237 73.950325 
L 319.506273 71.901115 
L 319.912345 79.484337 
L 320.115381 78.42272 
L 320.318417 70.502015 
L 320.521453 82.223978 
L 320.724489 78.17574 
L 320.927525 86.226199 
L 321.130561 71.394999 
L 321.333597 85.521929 
L 321.739669 74.161562 
L 322.145741 80.971418 
L 322.348777 77.605419 
L 322.551813 77.105506 
L 322.754849 84.894531 
L 322.957885 85.234452 
L 323.363957 70.23472 
L 323.566993 74.100949 
L 323.770029 75.037751 
L 323.973065 76.850373 
L 324.176101 75.389301 
L 324.379137 80.888897 
L 324.582173 69.39742 
L 324.785209 69.018401 
L 324.988245 78.856712 
L 325.394317 84.692575 
L 325.597353 81.670679 
L 325.800389 69.778193 
L 326.003425 84.604259 
L 326.206461 86.208324 
L 326.409497 88.810727 
L 326.612533 80.551729 
L 326.815569 80.117325 
L 327.018605 84.560467 
L 327.221641 74.767781 
L 327.424677 76.149513 
L 327.627713 84.184914 
L 327.830749 85.659646 
L 328.033785 82.487339 
L 328.236821 81.43388 
L 328.439857 67.294235 
L 328.642893 79.261104 
L 328.845929 83.530697 
L 329.048965 69.833693 
L 329.252001 77.855965 
L 329.455037 69.579692 
L 329.658073 71.498693 
L 329.861109 79.499138 
L 330.064145 71.360923 
L 330.267181 85.889708 
L 330.470217 73.377792 
L 330.673253 83.931593 
L 331.079325 69.869888 
L 331.282361 86.110305 
L 331.485397 81.775068 
L 331.688433 83.415251 
L 331.891469 70.2446 
L 332.094505 68.782999 
L 332.297541 75.097965 
L 332.500576 85.256644 
L 332.703612 81.989471 
L 332.906648 85.80982 
L 333.109684 72.206271 
L 333.31272 69.185591 
L 333.515756 82.474282 
L 333.718792 71.171271 
L 333.921828 85.14119 
L 334.124864 81.393186 
L 334.3279 67.785004 
L 334.733972 82.201108 
L 334.937008 79.670663 
L 335.140044 78.78579 
L 335.34308 82.340705 
L 335.546116 71.966848 
L 335.749152 85.623064 
L 335.952188 71.622592 
L 336.155224 84.367343 
L 336.35826 71.86235 
L 336.561296 76.399305 
L 336.764332 73.751226 
L 336.967368 82.016498 
L 337.170404 72.89975 
L 337.37344 84.637252 
L 337.779512 69.738625 
L 337.982548 79.138892 
L 338.185584 79.749702 
L 338.38862 79.152477 
L 338.591656 69.802008 
L 338.794692 69.496214 
L 339.200764 82.804765 
L 339.4038 73.683901 
L 339.606836 80.030718 
L 339.809872 77.415485 
L 340.012908 88.142164 
L 340.215944 73.020784 
L 340.41898 79.621686 
L 340.622016 78.339478 
L 340.825052 75.968093 
L 341.028088 76.657756 
L 341.231124 79.311303 
L 341.43416 80.328418 
L 341.637196 67.892057 
L 341.840232 82.038529 
L 342.043268 84.040639 
L 342.246304 67.651669 
L 342.44934 73.824333 
L 342.652376 75.25223 
L 342.855412 66.795028 
L 343.058448 75.797761 
L 343.46452 70.361852 
L 343.667556 81.09526 
L 343.870592 71.579004 
L 344.073628 73.018877 
L 344.276664 70.342966 
L 344.4797 70.79888 
L 344.885772 81.157976 
L 345.088808 78.245488 
L 345.291844 70.894036 
L 345.49488 78.131883 
L 345.697916 80.857766 
L 345.900952 74.456488 
L 346.103988 81.24103 
L 346.307024 81.684073 
L 346.51006 79.525491 
L 346.713096 87.544715 
L 346.916132 67.896921 
L 347.119168 67.825569 
L 347.322204 78.092044 
L 347.52524 73.795159 
L 347.728276 80.228163 
L 347.931312 67.616658 
L 348.134348 82.01306 
L 348.337384 82.590525 
L 348.54042 74.619212 
L 348.743456 74.179786 
L 348.946492 81.957987 
L 349.149528 76.649257 
L 349.352564 75.055925 
L 349.5556 70.500002 
L 349.758636 68.707055 
L 350.164707 78.558831 
L 350.367743 79.911511 
L 350.570779 72.601786 
L 350.773815 76.452117 
L 350.976851 69.645308 
L 351.179887 69.524804 
L 351.382923 83.579546 
L 351.585959 77.836861 
L 351.788995 76.95173 
L 351.992031 81.46779 
L 352.195067 71.390085 
L 352.398103 71.463325 
L 352.804175 78.274507 
L 353.210247 67.929 
L 353.413283 76.001764 
L 353.616319 73.45356 
L 353.819355 81.160895 
L 354.022391 82.021912 
L 354.225427 79.948243 
L 354.428463 82.571184 
L 354.631499 79.695826 
L 355.037571 68.489359 
L 355.443643 78.773753 
L 355.646679 70.858127 
L 356.052751 82.922179 
L 356.458823 71.950123 
L 356.661859 74.886238 
L 356.864895 75.243881 
L 357.067931 69.024329 
L 357.270967 83.879627 
L 357.474003 84.427408 
L 357.677039 69.54669 
L 357.880075 73.44393 
L 358.083111 68.20131 
L 358.286147 68.58296 
L 358.692219 76.583109 
L 358.895255 77.99613 
L 359.098291 77.952473 
L 359.301327 79.761259 
L 359.504363 69.597083 
L 359.707399 74.528318 
L 359.910435 83.823631 
L 360.113471 75.663532 
L 360.316507 84.154731 
L 360.519543 70.229983 
L 360.722579 80.087592 
L 360.925615 67.943501 
L 361.128651 66.782481 
L 361.331687 78.36278 
L 361.534723 68.858451 
L 361.940795 79.672024 
L 362.143831 67.823363 
L 362.549903 79.178753 
L 362.752939 74.267282 
L 362.955975 77.009341 
L 363.159011 72.872779 
L 363.362047 82.975472 
L 363.565083 79.302218 
L 363.768119 83.856942 
L 363.971155 81.460198 
L 364.174191 68.871996 
L 364.377227 79.786255 
L 364.580263 83.384834 
L 364.783299 73.631528 
L 364.986335 82.177275 
L 365.189371 74.368407 
L 365.392407 83.907963 
L 365.595443 74.980075 
L 365.798479 81.177014 
L 366.204551 70.715685 
L 366.407587 82.917862 
L 366.813659 73.250703 
L 367.016695 79.454659 
L 367.219731 78.548374 
L 367.422767 82.576791 
L 367.625802 79.774713 
L 367.828838 70.246927 
L 368.031874 70.052251 
L 368.23491 74.033061 
L 368.437946 71.606824 
L 368.640982 67.39616 
L 368.844018 82.549776 
L 369.047054 82.542032 
L 369.25009 72.334799 
L 369.453126 81.783087 
L 369.656162 82.186805 
L 369.859198 81.722187 
L 370.062234 77.539008 
L 370.26527 81.200853 
L 370.468306 73.837496 
L 370.671342 79.643209 
L 370.874378 81.58048 
L 371.483486 67.707779 
L 371.686522 82.341866 
L 372.29563 69.840027 
L 372.498666 71.2865 
L 372.701702 80.18497 
L 372.904738 74.527727 
L 373.107774 79.889358 
L 373.31081 75.317874 
L 373.513846 81.369564 
L 373.919918 76.729319 
L 374.122954 72.394154 
L 374.32599 71.168923 
L 374.529026 82.882789 
L 374.732062 68.417307 
L 374.935098 84.15792 
L 375.138134 71.18099 
L 375.34117 72.405148 
L 375.544206 74.963079 
L 375.950278 68.113888 
L 376.35635 80.313506 
L 376.559386 84.403952 
L 376.762422 67.79033 
L 376.965458 81.516066 
L 377.168494 67.627276 
L 377.37153 85.120942 
L 377.574566 79.640796 
L 377.777602 69.297272 
L 377.980638 67.852981 
L 378.183674 82.573391 
L 378.38671 66.405896 
L 378.589746 76.047251 
L 378.792782 70.707332 
L 378.995818 69.457449 
L 379.198854 81.462373 
L 379.40189 74.883529 
L 379.604926 75.346041 
L 379.807962 68.894553 
L 380.010998 77.916523 
L 380.214034 69.577795 
L 380.620106 86.333064 
L 380.823142 75.300094 
L 381.026178 74.801705 
L 381.229214 67.917298 
L 381.635286 82.655584 
L 381.838322 76.380187 
L 382.041358 78.709642 
L 382.44743 68.118784 
L 382.650466 76.510499 
L 382.853502 80.269213 
L 383.056538 72.807707 
L 383.259574 79.124446 
L 383.665646 67.670521 
L 383.868682 71.218189 
L 384.071718 80.268894 
L 384.274754 80.768715 
L 384.47779 80.328327 
L 384.680826 79.593856 
L 384.883862 70.513648 
L 385.086897 76.451388 
L 385.289933 71.308064 
L 385.492969 72.597794 
L 385.696005 68.92607 
L 385.899041 80.881053 
L 386.102077 67.487571 
L 386.305113 77.382671 
L 386.508149 80.20024 
L 386.711185 79.448453 
L 386.914221 79.12963 
L 387.117257 74.265385 
L 387.320293 76.299545 
L 387.523329 76.447445 
L 387.929401 74.281259 
L 388.132437 73.486035 
L 388.335473 77.137603 
L 388.741545 75.589745 
L 388.944581 78.189998 
L 389.147617 70.54937 
L 389.350653 75.402625 
L 389.553689 71.514858 
L 389.756725 81.692792 
L 389.959761 74.433606 
L 390.162797 76.045823 
L 390.365833 79.40736 
L 390.568869 75.583933 
L 390.771905 68.608287 
L 390.974941 76.902741 
L 391.177977 80.162657 
L 391.381013 75.52889 
L 391.584049 73.596951 
L 391.787085 79.147883 
L 391.990121 77.311462 
L 392.396193 70.402451 
L 392.599229 77.426888 
L 392.802265 79.047415 
L 393.005301 70.478414 
L 393.208337 67.67019 
L 393.411373 74.082694 
L 393.614409 70.776853 
L 393.817445 78.087958 
L 394.223517 67.763577 
L 394.426553 82.499653 
L 394.629589 73.361866 
L 394.832625 71.52251 
L 395.035661 77.890428 
L 395.238697 72.376877 
L 395.441733 75.449587 
L 395.644769 76.430311 
L 395.847805 66.499996 
L 396.050841 77.364687 
L 396.253877 69.371879 
L 396.456913 79.975059 
L 396.659949 73.93801 
L 396.862985 79.392029 
L 397.472093 66.585343 
L 397.675129 68.367632 
L 398.081201 81.663387 
L 398.284237 66.645857 
L 398.487273 68.367632 
L 398.487273 68.367632 
" clip-path="url(#pb3ea57472b)" style="fill: none; stroke: #ff0000; stroke-width: 1.5; stroke-linecap: square"/>
   </g>
   <g id="patch_3">
    <path d="M 57.6 307.584 
L 57.6 41.472 
" style="fill: none; stroke: #000000; stroke-width: 0.8; stroke-linejoin: miter; stroke-linecap: square"/>
   </g>
   <g id="patch_4">
    <path d="M 414.72 307.584 
L 414.72 41.472 
" style="fill: none; stroke: #000000; stroke-width: 0.8; stroke-linejoin: miter; stroke-linecap: square"/>
   </g>
   <g id="patch_5">
    <path d="M 57.6 307.584 
L 414.72 307.584 
" style="fill: none; stroke: #000000; stroke-width: 0.8; stroke-linejoin: miter; stroke-linecap: square"/>
   </g>
   <g id="patch_6">
    <path d="M 57.6 41.472 
L 414.72 41.472 
" style="fill: none; stroke: #000000; stroke-width: 0.8; stroke-linejoin: miter; stroke-linecap: square"/>
   </g>
   <g id="text_19">
    <!-- Recall Curve -->
    <g transform="translate(198.650625 35.472) scale(0.12 -0.12)">
     <defs>
      <path id="DejaVuSans-20" transform="scale(0.015625)"/>
      <path id="DejaVuSans-43" d="M 4122 4306 
L 4122 3641 
Q 3803 3938 3442 4084 
Q 3081 4231 2675 4231 
Q 1875 4231 1450 3742 
Q 1025 3253 1025 2328 
Q 1025 1406 1450 917 
Q 1875 428 2675 428 
Q 3081 428 3442 575 
Q 3803 722 4122 1019 
L 4122 359 
Q 3791 134 3420 21 
Q 3050 -91 2638 -91 
Q 1578 -91 968 557 
Q 359 1206 359 2328 
Q 359 3453 968 4101 
Q 1578 4750 2638 4750 
Q 3056 4750 3426 4639 
Q 3797 4528 4122 4306 
z
" transform="scale(0.015625)"/>
      <path id="DejaVuSans-75" d="M 544 1381 
L 544 3500 
L 1119 3500 
L 1119 1403 
Q 1119 906 1312 657 
Q 1506 409 1894 409 
Q 2359 409 2629 706 
Q 2900 1003 2900 1516 
L 2900 3500 
L 3475 3500 
L 3475 0 
L 2900 0 
L 2900 538 
Q 2691 219 2414 64 
Q 2138 -91 1772 -91 
Q 1169 -91 856 284 
Q 544 659 544 1381 
z
M 1991 3584 
L 1991 3584 
z
" transform="scale(0.015625)"/>
      <path id="DejaVuSans-76" d="M 191 3500 
L 800 3500 
L 1894 563 
L 2988 3500 
L 3597 3500 
L 2284 0 
L 1503 0 
L 191 3500 
z
" transform="scale(0.015625)"/>
     </defs>
     <use xlink:href="#DejaVuSans-52"/>
     <use xlink:href="#DejaVuSans-65" x="64.982422"/>
     <use xlink:href="#DejaVuSans-63" x="126.505859"/>
     <use xlink:href="#DejaVuSans-61" x="181.486328"/>
     <use xlink:href="#DejaVuSans-6c" x="242.765625"/>
     <use xlink:href="#DejaVuSans-6c" x="270.548828"/>
     <use xlink:href="#DejaVuSans-20" x="298.332031"/>
     <use xlink:href="#DejaVuSans-43" x="330.119141"/>
     <use xlink:href="#DejaVuSans-75" x="399.943359"/>
     <use xlink:href="#DejaVuSans-72" x="463.322266"/>
     <use xlink:href="#DejaVuSans-76" x="504.435547"/>
     <use xlink:href="#DejaVuSans-65" x="563.615234"/>
    </g>
   </g>
  </g>
 </g>
 <defs>
  <clipPath id="pb3ea57472b">
   <rect x="57.6" y="41.472" width="357.12" height="266.112"/>
  </clipPath>
 </defs>
</svg>
